{"glyphs":{"0":{"ha":496,"x_min":97,"x_max":393,"o":"m 162 886 q 227 903 200 900 q 338 827 283 903 q 379 603 379 737 q 393 345 387 568 q 390 199 390 282 q 303 35 390 75 l 276 33 l 271 33 q 181 94 235 33 q 97 679 97 208 q 162 886 97 759 m 124 677 l 124 640 q 176 155 124 341 q 271 57 216 73 l 279 57 q 363 190 347 57 l 363 193 q 366 340 363 262 q 322 800 366 659 q 233 876 277 876 q 224 878 233 878 q 162 824 162 853 q 124 677 124 731 z "},"1":{"ha":390,"x_min":88,"x_max":278,"o":"m 251 41 l 251 106 q 183 939 222 859 l 180 949 q 115 876 134 920 l 102 873 l 99 873 q 88 884 95 873 q 172 979 96 921 l 180 979 q 256 518 237 979 q 278 100 278 236 l 278 14 q 256 0 271 0 q 248 8 256 4 l 251 41 z "},"2":{"ha":454,"x_min":83,"x_max":385,"o":"m 83 838 q 170 925 118 907 q 260 947 233 944 q 382 852 345 947 l 385 833 q 309 572 385 739 q 211 187 249 380 q 176 33 203 140 l 178 33 q 338 52 311 52 l 349 52 q 360 41 353 52 l 360 33 q 352 24 360 28 l 338 24 q 157 0 297 24 l 149 11 l 149 19 q 200 266 149 32 q 330 697 267 571 q 357 830 357 782 q 281 917 357 888 q 260 920 275 917 q 132 863 132 891 q 108 819 118 848 l 102 817 q 83 827 88 817 l 83 838 z "},"3":{"ha":431,"x_min":88,"x_max":349,"o":"m 88 950 q 99 961 88 954 l 107 961 q 110 958 110 961 l 115 961 q 283 877 248 961 q 289 850 287 873 q 221 614 269 671 q 213 589 213 599 q 330 454 281 589 q 349 353 349 397 q 240 58 349 134 q 159 17 204 22 q 148 14 154 14 l 145 14 q 134 25 141 14 l 134 31 q 199 58 134 41 q 292 169 292 137 q 321 351 321 244 l 321 353 q 262 532 321 435 q 191 565 231 565 q 183 562 186 562 q 170 573 171 568 l 170 581 q 256 798 234 663 q 262 850 262 844 q 180 928 262 897 q 132 934 150 934 q 96 931 130 934 l 88 942 l 88 950 z "},"4":{"ha":399,"x_min":93,"x_max":315,"o":"m 93 522 q 123 880 93 559 l 120 899 q 142 909 132 909 q 150 896 150 901 q 120 541 150 867 l 120 522 q 125 456 120 507 l 128 456 q 196 462 169 462 l 258 462 q 231 823 258 593 q 245 842 237 840 l 250 842 q 261 831 254 842 l 261 828 q 258 817 261 822 q 286 465 268 817 q 296 456 296 463 l 296 448 l 288 437 q 315 17 304 275 l 302 9 q 286 31 286 14 l 286 36 q 288 39 286 39 l 286 44 q 261 435 286 182 l 185 435 q 115 424 158 435 l 109 424 q 93 522 98 424 z "},"5":{"ha":436,"x_min":42,"x_max":349,"o":"m 42 907 q 53 918 42 911 l 58 918 l 69 910 q 189 924 163 924 l 191 924 q 218 910 212 924 l 218 902 l 213 894 q 180 897 209 894 q 75 883 101 888 l 104 625 l 110 625 q 316 479 246 625 q 349 332 349 390 q 194 23 349 116 q 167 9 180 9 q 148 26 155 14 l 148 31 q 159 42 148 35 q 170 39 165 42 q 305 208 276 104 q 321 340 321 255 q 270 511 321 408 q 88 601 201 601 q 50 867 74 601 q 42 891 49 882 l 42 907 z "},"6":{"ha":469,"x_min":93,"x_max":367,"o":"m 191 838 q 242 873 217 873 q 253 862 246 873 l 253 857 l 220 829 q 163 710 194 795 q 128 555 128 593 q 180 572 155 572 l 185 572 q 329 441 255 572 q 367 222 367 327 q 313 67 367 141 q 277 51 295 51 l 264 51 q 109 309 182 51 q 93 463 98 378 q 191 838 93 647 m 120 460 q 169 205 120 342 q 269 75 229 75 q 340 216 317 75 q 258 498 340 406 q 174 545 216 545 q 120 460 131 545 z "},"7":{"ha":455,"x_min":56,"x_max":381,"o":"m 118 853 q 66 848 72 848 q 56 867 56 852 l 56 869 q 66 880 56 873 q 80 875 80 880 q 137 880 94 880 l 354 880 q 381 864 381 878 q 218 259 292 568 l 159 28 q 151 9 159 11 l 140 9 q 132 18 136 9 l 132 28 q 175 199 132 38 q 338 810 267 584 q 349 853 340 814 l 118 853 z "},"8":{"ha":436,"x_min":83,"x_max":349,"o":"m 83 183 q 151 376 83 248 q 86 590 86 471 q 170 837 86 734 q 216 875 197 850 q 230 880 225 880 q 306 745 281 880 l 306 728 q 203 433 306 645 q 184 381 184 387 l 184 378 q 349 140 349 197 l 349 129 q 233 42 349 60 q 100 121 156 42 q 83 178 83 149 l 83 183 m 162 408 l 165 408 q 246 598 165 415 q 279 731 279 679 q 235 850 279 797 l 230 850 q 184 812 230 837 q 113 590 113 713 q 162 408 113 490 m 111 180 q 211 72 111 107 q 233 69 218 72 q 322 134 322 82 q 170 349 322 191 l 168 349 q 111 186 111 235 l 111 180 z "},"9":{"ha":454,"x_min":88,"x_max":365,"o":"m 88 703 q 94 631 91 686 q 189 505 107 505 q 311 615 274 505 l 316 615 q 332 210 327 286 q 346 21 332 21 l 354 21 q 365 37 359 22 q 362 89 362 71 l 362 109 l 359 115 l 362 115 q 354 248 357 248 q 313 884 340 884 l 305 884 l 297 878 l 292 878 q 237 910 283 907 l 235 910 q 170 890 199 910 q 88 703 88 810 m 115 706 q 126 764 121 752 q 237 878 158 878 l 240 878 q 283 845 262 878 l 297 845 l 305 725 q 294 654 305 700 q 189 537 265 537 q 151 553 151 546 q 115 706 125 553 z "}," ":{"ha":345,"x_min":0,"x_max":0,"o":""},"!":{"ha":302,"x_min":116,"x_max":197,"o":"m 165 528 q 168 538 168 532 q 116 956 168 614 q 135 972 116 972 q 146 962 139 972 l 143 948 q 195 479 195 648 q 197 197 195 423 l 189 191 l 181 191 q 170 205 176 193 q 168 495 168 401 l 165 528 m 151 34 q 176 61 151 50 q 195 42 195 61 q 170 9 190 9 q 151 34 151 18 z "},"\"":{"ha":456,"x_min":144,"x_max":285,"o":"m 244 1024 q 252 997 250 997 q 266 826 252 826 q 285 842 285 826 q 282 859 282 857 l 282 883 q 260 1035 282 1035 l 255 1035 q 244 1024 244 1028 m 160 829 q 187 1002 180 829 q 165 1024 187 1021 q 152 1013 157 1024 l 152 1008 l 160 994 q 144 837 155 888 q 152 829 148 829 l 160 829 z "},"#":{"ha":668,"x_min":98,"x_max":548,"o":"m 513 610 l 502 610 q 401 593 401 610 q 366 385 401 587 l 369 385 q 472 404 449 404 l 483 404 q 494 393 487 404 l 494 387 q 483 376 494 383 l 475 376 q 358 349 358 361 q 326 92 326 168 l 326 78 q 312 51 326 57 l 304 51 q 293 64 298 52 q 298 81 298 73 l 298 92 q 331 349 298 171 q 203 317 203 319 q 182 105 182 166 q 187 83 187 88 q 179 73 183 73 l 165 73 q 155 92 155 77 q 174 311 155 146 l 171 311 q 106 300 115 300 l 98 311 l 98 317 q 176 338 98 330 q 212 561 182 353 l 206 561 q 117 547 146 547 q 109 566 109 557 q 119 577 109 570 l 133 574 q 214 591 166 580 q 244 778 225 778 l 252 778 q 266 756 266 771 q 244 607 250 756 q 241 599 241 607 l 244 599 q 377 626 360 621 q 391 759 391 713 l 391 789 q 401 800 391 793 l 407 800 q 418 789 411 800 l 418 759 q 407 629 418 739 l 410 629 q 510 637 464 637 l 515 637 l 532 640 q 548 626 543 636 l 548 618 q 534 604 548 614 q 513 610 532 604 m 206 349 l 212 349 q 336 379 334 376 q 374 596 355 468 q 239 564 239 574 q 206 349 212 369 z "},"$":{"ha":519,"x_min":93,"x_max":441,"o":"m 125 595 q 214 439 125 463 q 316 427 228 434 q 441 280 441 372 q 396 166 428 201 q 304 88 353 120 q 310 -159 304 50 q 294 -168 300 -168 q 278 -153 286 -168 l 272 73 q 198 52 209 52 l 182 52 q 153 70 165 52 l 153 79 q 163 88 153 83 l 166 88 q 192 82 189 82 q 275 121 275 100 q 288 124 277 121 l 294 121 q 396 226 367 163 q 409 286 409 271 q 214 406 387 406 q 102 532 102 444 q 93 599 94 549 l 93 631 q 185 848 93 764 l 185 851 q 170 974 185 928 q 182 986 170 979 l 189 986 q 218 860 218 974 l 220 860 l 239 863 l 250 863 q 291 842 277 863 l 291 836 q 278 824 291 831 l 246 833 l 237 833 q 218 815 218 833 q 125 644 150 815 l 125 595 z "},"%":{"ha":677,"x_min":93,"x_max":573,"o":"m 470 345 q 573 269 534 345 l 573 247 q 500 174 553 174 l 486 174 q 424 217 441 174 q 418 250 418 236 l 418 269 q 424 298 418 288 q 413 307 413 298 l 413 315 q 470 345 439 345 m 372 643 q 440 868 440 833 l 448 873 q 467 854 467 873 q 348 475 467 840 q 275 155 275 220 q 272 152 272 155 q 275 144 275 146 q 264 125 271 125 l 256 125 q 245 138 245 130 q 372 643 249 257 m 185 559 q 150 553 173 553 l 147 553 q 93 610 93 553 q 134 678 93 651 l 153 675 q 177 681 163 681 q 242 618 242 669 q 185 559 242 582 m 481 201 l 497 201 q 546 250 546 214 l 546 252 q 467 317 546 299 l 465 317 q 462 315 465 315 l 465 309 l 465 304 q 443 258 443 287 q 481 201 449 201 m 142 581 l 150 581 q 215 624 215 587 q 174 654 204 654 q 147 640 165 654 l 136 640 l 131 643 q 120 608 120 614 q 142 581 120 581 z "},"&":{"ha":515,"x_min":112,"x_max":484,"o":"m 223 533 l 223 530 q 342 346 262 450 l 345 346 q 383 479 359 479 l 391 479 q 402 468 395 479 l 386 433 q 367 308 367 330 q 484 148 470 172 l 484 145 q 473 134 484 141 q 429 180 457 134 q 359 273 417 193 q 242 140 320 140 q 128 202 170 140 q 112 270 112 238 q 191 530 112 393 q 112 680 112 644 l 112 688 q 201 755 112 738 q 237 761 214 761 q 310 696 310 751 l 310 688 q 223 533 310 656 m 242 167 q 337 308 309 167 q 204 503 278 380 q 139 267 139 370 q 242 167 139 180 m 207 560 l 210 560 q 283 688 283 669 l 283 690 q 239 734 277 734 q 139 685 139 724 q 207 560 139 646 z "},"'":{"ha":235,"x_min":74,"x_max":147,"o":"m 120 922 q 74 748 98 829 q 85 737 81 737 l 90 737 l 96 740 q 147 916 117 784 q 136 927 140 927 l 128 927 l 120 922 z "},"(":{"ha":292,"x_min":79,"x_max":277,"o":"m 171 941 l 171 937 q 149 875 171 928 q 106 529 106 710 q 190 -21 106 339 q 277 -200 209 -81 l 277 -204 q 266 -225 271 -223 q 184 -87 246 -225 q 87 379 134 43 q 79 533 79 511 q 144 946 79 769 l 155 958 l 160 958 q 171 941 164 958 z "},")":{"ha":306,"x_min":23,"x_max":180,"o":"m 88 -172 q 77 -161 77 -166 l 77 -154 q 153 328 153 58 l 153 400 q 91 778 153 572 l 23 920 l 23 930 q 34 944 23 936 l 39 944 q 66 892 45 944 q 148 674 115 818 q 180 400 180 520 l 180 351 q 99 -168 180 26 l 88 -172 z "},"*":{"ha":519,"x_min":166,"x_max":372,"o":"m 177 882 q 188 893 177 886 l 193 893 l 223 861 l 223 866 q 204 939 204 930 l 215 947 l 220 947 q 248 877 233 947 l 272 920 l 286 920 q 294 912 290 920 l 294 909 q 269 839 269 856 q 359 863 307 852 l 364 863 q 372 855 368 863 l 372 847 q 272 812 372 838 l 272 809 q 367 714 272 807 l 367 703 q 359 695 367 699 l 356 695 q 291 752 343 695 l 280 760 l 280 758 q 294 698 294 706 q 286 687 290 687 l 275 687 q 248 771 269 687 l 245 771 q 212 692 228 692 l 210 692 q 199 703 205 692 l 223 793 l 220 793 q 177 777 181 777 q 166 787 173 777 q 218 820 166 808 l 218 823 q 177 880 177 867 l 177 882 z "},"+":{"ha":557,"x_min":125,"x_max":431,"o":"m 220 673 q 239 689 220 689 q 255 583 252 689 q 407 594 356 594 l 423 594 q 431 586 427 594 l 431 575 q 423 567 431 571 l 404 567 q 258 556 349 567 l 258 553 q 271 404 258 513 l 263 399 l 252 399 q 231 551 239 399 l 228 551 q 141 537 218 551 l 133 537 q 125 545 129 537 l 125 553 q 228 578 125 568 q 220 673 225 637 z "},",":{"ha":334,"x_min":116,"x_max":184,"o":"m 154 19 q 170 27 165 27 q 184 16 182 22 q 143 -103 165 -47 q 127 -111 133 -111 q 116 -103 116 -107 l 116 -92 q 154 19 135 -59 z "},"-":{"ha":454,"x_min":116,"x_max":328,"o":"m 328 476 q 252 495 328 488 q 216 492 216 495 q 116 473 116 487 l 116 463 l 121 454 q 243 468 220 468 q 317 457 269 468 q 328 468 328 464 l 328 476 z "},".":{"ha":269,"x_min":107,"x_max":148,"o":"m 107 34 l 107 42 q 126 66 119 63 l 137 66 q 148 56 141 66 l 148 45 q 121 23 131 23 q 107 34 109 28 z "},"/":{"ha":386,"x_min":0,"x_max":374,"o":"m 355 838 l 363 838 q 374 827 368 838 l 374 822 q 293 640 354 798 q 30 8 184 427 q 11 0 20 0 q 0 16 0 5 q 163 429 22 60 q 342 827 270 652 l 355 838 z "},":":{"ha":378,"x_min":186,"x_max":229,"o":"m 205 608 q 229 627 221 608 l 227 633 l 229 638 q 208 657 229 655 l 202 657 q 186 641 186 645 l 186 630 q 199 608 186 615 l 205 608 m 224 304 q 208 323 224 323 q 189 304 189 323 l 189 299 q 210 283 195 283 l 213 283 q 224 294 224 290 l 224 304 z "},";":{"ha":378,"x_min":130,"x_max":195,"o":"m 187 328 l 171 328 q 130 206 163 322 q 138 195 134 195 l 149 195 l 155 198 q 195 312 184 299 l 195 320 q 187 328 191 328 m 152 605 l 152 594 q 168 583 157 583 q 193 613 193 587 l 193 618 q 176 627 193 625 l 174 627 q 152 605 152 627 z "},"<":{"ha":688,"x_min":158,"x_max":478,"o":"m 402 645 q 234 485 402 637 q 191 428 191 431 q 359 292 261 351 q 478 197 469 210 l 478 192 q 467 181 478 188 l 459 181 l 201 374 q 158 428 158 416 q 296 577 177 475 q 421 691 401 681 l 427 691 q 437 680 431 691 q 402 645 437 661 z "},"=":{"ha":688,"x_min":83,"x_max":580,"o":"m 545 347 q 124 330 509 347 q 100 325 106 325 l 94 325 q 83 336 90 325 l 83 341 q 241 363 83 358 l 545 374 q 580 366 580 374 l 580 349 l 577 344 l 545 347 m 116 553 q 173 547 130 553 q 379 553 245 550 q 539 550 455 550 l 545 542 l 545 531 l 536 520 q 412 526 439 526 q 154 523 233 523 q 105 536 105 523 l 105 542 q 116 553 105 546 z "},">":{"ha":688,"x_min":214,"x_max":509,"o":"m 233 227 l 224 227 q 214 238 220 227 q 290 328 214 251 q 471 526 411 472 q 222 729 350 614 q 214 762 214 743 l 224 770 l 230 770 q 249 740 237 767 q 504 534 368 637 l 509 523 q 444 463 509 519 q 233 227 368 373 z "},"?":{"ha":450,"x_min":88,"x_max":346,"o":"m 88 817 l 88 779 q 102 757 88 764 l 113 757 q 123 776 123 762 l 123 779 l 115 789 l 115 814 q 202 890 115 866 q 267 871 225 890 q 321 768 321 825 q 275 570 321 668 q 221 361 221 497 q 229 269 229 272 q 227 252 227 264 q 235 241 228 241 l 243 241 q 254 260 254 246 l 254 290 q 248 361 254 316 q 270 502 248 457 q 346 762 346 626 l 346 781 q 308 871 346 823 q 208 917 260 917 l 197 917 q 88 817 88 886 m 235 62 q 210 41 212 50 q 235 14 213 14 q 256 35 256 14 l 256 49 q 243 62 246 62 l 235 62 z "},"@":{"ha":622,"x_min":111,"x_max":496,"o":"m 111 623 q 144 314 111 555 q 350 116 211 116 q 437 146 387 116 q 496 271 475 176 l 496 279 q 486 290 490 290 l 480 290 l 475 287 q 437 189 448 196 q 353 143 437 163 q 174 306 237 143 q 138 618 155 399 q 174 753 141 694 q 290 848 235 848 l 301 848 q 407 770 349 848 q 469 504 469 628 l 469 501 q 464 466 469 490 l 461 466 q 399 653 437 522 q 369 740 385 740 q 323 759 342 759 q 285 751 310 759 q 212 572 212 713 q 320 376 227 376 q 401 545 401 376 l 404 545 q 456 431 437 431 l 458 431 q 496 496 496 437 l 496 504 q 494 547 496 532 q 439 762 475 699 q 298 876 379 876 l 293 876 q 214 843 256 876 q 111 623 111 753 m 317 404 q 301 409 306 409 q 239 580 239 451 q 241 623 239 595 q 323 732 260 732 q 350 724 347 724 q 374 550 361 724 l 374 534 q 317 404 374 404 z "},"A":{"ha":501,"x_min":88,"x_max":382,"o":"m 109 374 q 106 450 106 412 q 139 863 108 645 q 178 926 152 926 l 181 926 q 247 830 220 908 q 358 234 322 597 q 382 27 382 116 q 363 18 378 18 q 331 234 353 39 q 304 414 325 255 l 283 416 q 136 387 136 403 l 136 281 l 118 30 q 124 12 124 20 q 112 0 124 7 q 88 30 88 0 q 109 374 109 316 m 301 446 l 301 450 q 211 842 301 532 q 178 890 191 884 q 139 497 139 738 q 136 431 136 497 l 136 422 q 301 446 222 446 z "},"B":{"ha":406,"x_min":79,"x_max":307,"o":"m 168 987 q 271 811 252 987 l 271 760 q 184 556 258 665 q 168 537 182 555 l 168 534 q 258 456 223 514 q 307 290 294 402 q 247 52 307 149 q 171 0 208 9 l 165 0 q 127 92 127 0 q 95 811 95 559 q 79 949 90 884 q 168 987 124 987 m 109 936 q 130 453 130 767 q 157 38 141 326 l 168 27 q 247 109 224 50 q 279 290 279 199 q 244 420 258 420 q 163 510 226 473 q 130 526 140 510 l 130 534 q 244 754 218 633 l 244 798 q 168 960 231 960 q 109 936 134 960 z "},"C":{"ha":431,"x_min":88,"x_max":378,"o":"m 88 562 q 178 901 93 836 q 229 920 218 920 l 248 920 q 297 884 297 911 q 286 873 297 880 l 275 873 q 237 895 258 895 q 170 852 170 871 q 115 570 115 749 l 115 524 q 148 233 115 403 q 202 65 168 109 q 275 27 244 28 q 362 87 315 27 l 370 87 q 378 79 374 87 l 378 73 q 319 11 378 49 q 273 0 294 0 l 270 0 q 186 43 230 5 q 102 353 138 81 q 88 545 88 411 l 88 562 z "},"D":{"ha":415,"x_min":83,"x_max":338,"o":"m 86 971 q 252 833 194 936 q 338 469 338 656 l 338 456 q 146 22 338 190 q 113 14 121 14 q 102 57 106 14 l 105 62 q 94 239 97 125 l 97 239 l 94 244 l 94 247 q 97 442 94 354 l 83 971 l 86 971 m 124 445 q 121 296 121 372 l 121 263 q 132 46 121 160 q 249 187 195 100 q 311 448 311 326 l 311 475 q 227 822 311 645 q 113 930 167 913 l 113 928 q 124 445 116 621 z "},"E":{"ha":390,"x_min":111,"x_max":320,"o":"m 122 932 l 152 932 q 195 935 168 932 l 201 932 q 203 935 203 932 q 290 916 290 927 l 290 913 q 277 900 286 900 l 198 908 q 144 905 191 908 l 146 873 q 160 515 146 829 l 179 515 q 214 517 201 515 q 304 512 275 512 l 312 501 l 312 493 q 301 485 312 485 q 222 490 277 485 q 160 488 186 488 l 160 477 q 179 35 160 286 q 182 32 182 35 q 304 37 284 37 q 320 24 315 34 l 320 21 q 309 10 320 17 q 184 5 206 7 q 152 40 152 5 q 133 471 133 299 l 133 558 q 119 881 119 797 q 111 924 111 922 l 122 932 z "},"F":{"ha":380,"x_min":93,"x_max":296,"o":"m 93 912 q 123 920 104 920 q 286 915 234 915 l 291 907 q 275 888 291 888 q 120 890 205 890 l 134 551 l 134 549 l 136 516 q 218 522 178 522 l 288 522 q 296 505 294 522 l 283 494 l 207 494 q 139 484 139 494 l 139 454 q 144 128 139 414 l 144 98 l 147 82 q 144 79 147 79 l 147 52 l 147 22 q 139 14 147 18 l 131 14 q 120 25 127 14 q 104 595 110 595 l 106 595 l 104 600 q 93 912 93 813 z "},"G":{"ha":496,"x_min":111,"x_max":363,"o":"m 111 401 q 171 52 111 165 q 250 0 205 10 l 260 0 q 301 14 301 8 q 363 228 345 14 q 361 236 363 231 q 363 279 363 264 l 363 347 q 353 399 363 388 q 236 415 245 408 l 228 415 q 220 407 220 411 l 220 404 l 222 391 q 331 374 222 382 q 334 377 331 377 l 336 363 l 336 231 q 309 68 319 68 q 260 27 309 37 l 250 27 q 187 79 203 46 q 138 399 138 189 q 220 863 138 843 l 231 863 q 269 854 251 863 q 304 836 298 836 q 315 846 315 842 l 315 852 q 233 890 285 890 l 228 890 l 201 887 q 111 401 111 848 z "},"H":{"ha":406,"x_min":98,"x_max":307,"o":"m 106 13 l 106 37 q 103 186 106 148 q 106 349 106 253 l 106 390 q 98 574 98 523 q 106 960 106 877 q 103 979 103 970 l 114 987 l 119 987 q 133 965 133 979 q 125 558 133 915 l 125 509 l 127 504 q 271 512 145 509 q 269 653 269 610 l 269 778 q 266 789 269 784 l 269 794 q 271 995 271 924 l 282 1003 l 288 1003 q 298 989 298 998 q 293 791 298 862 l 298 509 q 304 496 304 500 q 298 488 301 488 q 307 45 304 361 q 304 -9 304 31 l 296 -14 l 288 -14 l 277 -6 q 279 40 277 23 q 271 485 277 411 q 127 477 144 482 q 133 376 133 427 q 130 186 133 269 q 133 7 133 140 q 117 2 124 2 q 106 13 113 2 z "},"I":{"ha":288,"x_min":125,"x_max":169,"o":"m 153 469 q 155 448 153 458 q 153 222 153 306 l 153 46 q 158 19 153 41 q 147 0 155 0 l 136 0 q 125 73 125 0 q 142 722 125 544 l 142 798 q 134 911 142 861 q 144 922 134 916 l 150 922 q 169 779 169 922 l 169 743 q 153 469 169 690 z "},"J":{"ha":330,"x_min":37,"x_max":219,"o":"m 127 0 q 54 46 54 18 q 37 174 40 54 q 51 182 46 182 q 64 163 64 178 q 105 35 64 35 q 132 27 119 27 l 135 27 q 192 182 181 27 l 192 195 q 186 366 186 338 l 186 399 q 184 787 186 549 q 178 865 178 823 l 178 884 q 192 898 178 888 q 208 892 199 898 q 205 857 208 891 q 214 380 214 756 l 214 361 q 219 187 214 334 q 138 0 209 0 l 127 0 z "},"K":{"ha":427,"x_min":79,"x_max":361,"o":"m 165 418 l 190 5 l 182 0 l 171 0 q 157 14 168 0 l 157 16 q 163 33 157 24 q 117 667 138 474 q 79 941 79 883 l 79 949 q 90 960 79 954 l 95 960 q 106 949 99 960 l 106 936 q 155 570 114 858 q 163 461 163 476 l 165 461 q 260 909 260 828 l 260 936 q 258 958 260 939 l 269 966 q 288 955 283 966 l 288 941 q 233 624 288 822 q 187 439 222 572 q 323 182 227 439 q 361 16 345 114 l 361 8 q 353 0 361 4 l 345 0 q 331 22 331 7 l 331 24 q 334 27 331 27 q 258 277 298 191 q 165 418 198 418 z "},"L":{"ha":390,"x_min":93,"x_max":304,"o":"m 123 944 q 142 445 142 648 q 150 263 150 379 l 150 27 l 296 27 q 304 19 300 27 l 304 11 q 258 0 304 0 l 134 0 q 123 11 130 0 l 123 27 q 125 46 123 46 l 123 79 l 123 277 q 101 871 112 634 l 93 960 q 112 974 97 974 l 115 974 q 125 963 119 974 q 120 949 125 949 l 123 944 z "},"M":{"ha":492,"x_min":69,"x_max":433,"o":"m 85 940 l 69 932 q 117 32 93 741 q 132 16 117 16 l 148 24 l 109 806 l 109 814 l 117 814 q 267 458 243 460 q 377 774 279 468 l 385 774 l 385 442 q 416 0 401 0 l 433 8 q 409 474 409 410 q 416 884 409 642 l 416 911 l 409 924 l 401 924 q 267 505 267 534 l 259 505 q 85 940 101 935 z "},"N":{"ha":464,"x_min":84,"x_max":392,"o":"m 100 937 q 84 921 87 937 l 84 451 q 100 27 84 264 q 115 12 100 12 l 130 12 q 107 513 107 209 q 113 724 107 573 l 112 747 q 107 836 112 779 l 108 851 l 113 842 l 184 597 q 377 -3 361 -3 l 392 4 q 377 613 377 377 l 377 690 q 385 921 377 767 l 369 929 q 354 913 356 929 l 354 721 q 349 635 354 689 q 349 604 349 612 q 346 521 346 533 q 361 151 346 480 l 361 127 l 354 127 q 222 567 238 479 q 100 937 115 937 z "},"O":{"ha":422,"x_min":65,"x_max":331,"o":"m 65 382 l 73 271 q 195 19 98 43 l 214 19 q 252 30 224 19 q 331 382 331 96 q 328 399 331 385 q 331 418 331 402 l 331 420 q 328 439 331 436 q 331 464 331 454 l 331 475 q 328 564 331 530 q 206 930 283 930 q 160 911 185 930 q 65 382 65 764 m 133 122 q 92 391 92 237 q 168 873 92 713 q 206 903 174 891 q 247 844 227 889 q 304 477 304 637 l 304 423 q 274 122 304 193 q 203 46 258 46 l 201 46 q 133 122 171 46 z "},"P":{"ha":376,"x_min":102,"x_max":311,"o":"m 124 30 q 127 33 124 33 q 119 103 122 59 q 121 106 119 106 l 113 220 q 116 260 116 247 q 113 323 113 310 q 102 336 102 328 q 113 347 105 347 q 108 434 108 419 l 121 928 q 116 933 116 928 l 116 941 q 127 952 116 945 q 300 836 254 952 q 311 773 309 809 q 252 401 311 604 q 173 328 224 353 q 140 320 140 326 l 140 317 q 143 258 140 281 q 140 231 140 234 q 149 54 149 77 q 157 33 157 53 l 157 24 q 140 0 149 3 l 135 0 q 124 11 131 0 l 124 30 m 281 719 q 284 784 284 768 q 203 911 284 854 q 149 925 179 920 l 135 434 q 138 355 138 377 l 143 353 q 205 385 174 353 q 281 719 252 415 z "},"Q":{"ha":469,"x_min":102,"x_max":404,"o":"m 159 925 q 222 949 205 949 q 300 800 273 949 q 347 396 347 652 l 347 258 q 330 136 347 214 q 404 11 404 22 l 404 8 q 395 0 404 4 l 387 0 q 322 103 368 14 l 317 103 q 265 65 298 65 q 116 326 147 65 q 102 640 102 452 q 159 925 102 880 m 208 125 q 265 92 224 92 q 300 133 286 92 q 222 258 222 251 l 222 260 q 233 271 222 264 l 238 271 q 306 174 251 262 l 311 174 q 319 247 319 231 l 319 412 q 243 903 319 687 q 224 920 242 903 l 222 920 q 168 892 174 905 q 130 640 130 842 q 208 125 130 193 z "},"R":{"ha":404,"x_min":83,"x_max":317,"o":"m 124 90 q 138 79 134 79 q 154 90 149 79 l 154 95 q 149 247 154 113 l 149 350 q 146 437 149 378 l 149 437 q 224 396 181 437 q 287 187 287 289 l 287 90 q 290 8 287 62 l 300 0 l 309 0 l 317 5 q 314 73 314 50 l 314 176 q 176 458 295 430 q 279 716 279 538 l 279 743 q 233 909 279 797 q 149 985 200 964 q 100 1001 107 991 l 94 1001 l 83 993 q 119 453 105 825 q 105 442 111 453 l 105 434 q 121 423 110 423 l 121 260 q 127 109 121 223 l 124 90 m 252 703 q 146 472 252 544 q 116 963 132 765 l 124 963 q 192 922 147 963 q 252 741 252 812 l 252 703 z "},"S":{"ha":390,"x_min":56,"x_max":335,"o":"m 56 708 q 88 863 56 795 q 235 916 125 916 l 243 906 l 243 901 q 229 888 243 898 l 202 888 q 104 835 130 888 q 83 703 83 776 q 121 558 83 659 q 267 411 134 531 q 335 218 335 313 q 302 71 335 143 q 221 13 288 37 q 183 0 197 0 q 164 10 169 0 l 164 18 q 194 28 164 25 q 283 99 283 62 q 308 226 308 148 q 216 427 308 328 q 107 533 143 481 q 58 673 83 559 q 56 708 58 686 z "},"T":{"ha":418,"x_min":56,"x_max":351,"o":"m 56 869 q 66 878 56 873 q 88 873 85 873 q 161 878 140 878 l 273 878 q 343 883 307 878 l 351 873 l 351 867 q 275 855 351 855 l 199 855 q 191 846 195 855 l 197 722 q 194 703 194 705 q 218 115 218 292 q 221 107 221 110 q 218 100 218 103 l 221 84 q 213 75 217 75 l 202 75 q 191 84 199 75 q 194 110 191 89 q 170 696 194 168 q 164 852 170 782 l 159 855 l 151 855 l 64 848 q 56 869 56 857 z "},"U":{"ha":473,"x_min":125,"x_max":351,"o":"m 136 955 l 142 955 q 155 933 155 948 l 155 920 q 215 209 180 478 q 288 27 239 27 q 323 79 323 42 q 302 616 323 185 q 304 768 304 694 l 304 833 l 302 849 l 304 854 q 296 930 302 891 l 307 939 l 315 939 q 332 863 327 939 q 329 857 332 857 q 332 798 332 817 l 332 711 l 329 694 q 332 692 329 692 q 329 646 329 660 l 329 635 q 351 79 351 163 q 280 0 343 0 q 182 260 207 0 q 125 947 153 492 l 136 955 z "},"V":{"ha":429,"x_min":106,"x_max":326,"o":"m 185 155 q 115 871 115 602 l 106 906 q 117 917 106 910 l 123 917 q 147 705 147 917 q 212 138 182 317 l 215 138 q 291 841 215 194 q 307 933 296 933 l 318 933 q 326 922 322 933 l 245 195 q 229 3 235 3 l 223 0 l 215 0 q 185 155 202 0 z "},"W":{"ha":574,"x_min":102,"x_max":479,"o":"m 113 868 l 124 868 q 154 713 136 868 q 219 304 203 392 l 246 157 l 249 157 q 279 534 271 515 l 292 537 q 317 431 306 537 q 387 179 330 366 l 412 92 l 417 95 q 455 887 433 581 l 463 892 l 471 892 q 479 884 475 892 q 441 71 450 294 q 422 22 433 22 l 417 22 q 366 157 403 22 q 295 410 295 386 l 292 410 q 271 5 271 95 l 262 0 l 254 0 q 233 92 243 0 q 113 819 173 373 q 102 857 111 819 q 113 868 102 861 z "},"X":{"ha":566,"x_min":83,"x_max":509,"o":"m 83 887 l 83 890 l 94 898 l 100 898 q 168 746 111 898 l 281 502 q 317 735 290 502 q 349 933 338 898 l 363 933 q 371 925 367 933 l 371 917 q 306 450 344 741 q 452 127 395 279 l 509 14 l 509 11 q 498 0 509 7 l 496 0 q 471 30 475 0 q 349 307 429 102 q 300 404 345 307 l 295 404 q 233 136 284 348 q 211 52 218 52 l 197 52 q 186 62 193 52 q 276 450 276 423 q 83 887 151 707 z "},"Y":{"ha":441,"x_min":74,"x_max":361,"o":"m 291 534 q 112 819 220 685 q 96 846 104 843 l 85 846 q 74 836 74 840 l 74 830 q 96 800 74 816 q 288 480 215 640 q 245 14 275 371 q 256 0 250 1 l 264 0 l 269 3 q 288 203 280 69 q 318 472 309 472 l 318 480 l 315 496 q 361 876 340 682 l 361 879 q 351 890 355 890 l 345 890 l 337 884 q 294 534 323 793 l 291 534 z "},"Z":{"ha":492,"x_min":106,"x_max":375,"o":"m 106 808 q 117 819 106 812 l 123 819 q 296 803 123 809 q 345 779 345 798 l 345 776 q 201 282 286 612 q 142 35 142 121 q 215 30 164 30 q 334 33 241 30 q 353 27 353 31 l 359 30 l 364 30 q 375 19 368 30 l 375 11 q 359 0 375 5 q 315 5 336 5 q 191 3 277 5 q 115 8 145 8 q 109 22 109 17 q 172 285 109 89 q 261 613 188 331 q 313 770 294 704 q 117 787 279 778 q 106 808 106 798 z "},"[":{"ha":450,"x_min":69,"x_max":395,"o":"m 167 7 q 175 -9 172 -9 q 387 -20 376 -20 l 395 -33 q 381 -47 394 -41 l 368 -44 q 159 -36 328 -44 q 126 227 135 -36 q 69 832 69 819 q 235 870 73 859 q 292 884 235 874 l 300 873 l 300 867 q 126 832 290 844 q 96 821 126 831 l 126 496 q 167 7 146 330 z "},"\\":{"ha":386,"x_min":0,"x_max":391,"o":"m 342 57 q 133 545 218 363 q 8 811 85 635 q 0 819 4 811 l 0 830 q 8 838 0 834 l 19 838 q 106 665 31 838 q 363 73 233 412 q 391 11 391 19 q 380 0 391 7 l 372 0 q 342 57 361 1 z "},"]":{"ha":478,"x_min":102,"x_max":347,"o":"m 102 825 q 116 842 106 837 l 121 842 q 135 831 134 831 q 205 833 142 831 q 254 831 216 833 q 279 833 269 833 q 319 809 319 830 q 314 790 317 790 q 322 616 322 693 l 322 432 q 347 -56 322 252 q 333 -70 347 -64 q 224 -54 282 -59 q 203 -56 214 -56 q 186 -40 186 -54 q 195 -29 191 -29 l 230 -29 q 317 -40 279 -29 l 317 -37 q 295 429 306 78 l 295 619 q 290 801 295 638 l 290 806 l 287 806 q 254 804 262 806 q 200 806 224 806 q 124 804 179 806 q 102 825 102 808 z "},"^":{"ha":688,"x_min":125,"x_max":606,"o":"m 342 789 q 204 596 262 699 q 142 501 157 508 l 136 501 q 125 512 132 501 l 125 528 q 158 574 147 545 q 329 819 235 707 q 345 824 338 824 q 497 667 390 787 q 606 528 587 547 q 597 512 606 514 l 587 512 q 465 664 562 532 q 342 789 349 785 z "},"_":{"ha":798,"x_min":42,"x_max":736,"o":"m 343 -54 q 718 -71 628 -71 l 728 -71 q 736 -79 732 -71 l 736 -87 l 728 -98 q 343 -81 587 -95 q 83 -87 98 -84 q 42 -73 42 -84 l 42 -68 q 53 -57 42 -64 q 80 -60 71 -57 q 343 -54 266 -54 z "},"a":{"ha":501,"x_min":88,"x_max":382,"o":"m 109 374 q 106 450 106 412 q 139 863 108 645 q 178 926 152 926 l 181 926 q 247 830 220 908 q 358 234 322 597 q 382 27 382 116 q 363 18 378 18 q 331 234 353 39 q 304 414 325 255 l 283 416 q 136 387 136 403 l 136 281 l 118 30 q 124 12 124 20 q 112 0 124 7 q 88 30 88 0 q 109 374 109 316 m 301 446 l 301 450 q 211 842 301 532 q 178 890 191 884 q 139 497 139 738 q 136 431 136 497 l 136 422 q 301 446 222 446 z "},"b":{"ha":406,"x_min":79,"x_max":307,"o":"m 168 987 q 271 811 252 987 l 271 760 q 184 556 258 665 q 168 537 182 555 l 168 534 q 258 456 223 514 q 307 290 294 402 q 247 52 307 149 q 171 0 208 9 l 165 0 q 127 92 127 0 q 95 811 95 559 q 79 949 90 884 q 168 987 124 987 m 109 936 q 130 453 130 767 q 157 38 141 326 l 168 27 q 247 109 224 50 q 279 290 279 199 q 244 420 258 420 q 163 510 226 473 q 130 526 140 510 l 130 534 q 244 754 218 633 l 244 798 q 168 960 231 960 q 109 936 134 960 z "},"c":{"ha":431,"x_min":88,"x_max":378,"o":"m 88 562 q 178 901 93 836 q 229 920 218 920 l 248 920 q 297 884 297 911 q 286 873 297 880 l 275 873 q 237 895 258 895 q 170 852 170 871 q 115 570 115 749 l 115 524 q 148 233 115 403 q 202 65 168 109 q 275 27 244 28 q 362 87 315 27 l 370 87 q 378 79 374 87 l 378 73 q 319 11 378 49 q 273 0 294 0 l 270 0 q 186 43 230 5 q 102 353 138 81 q 88 545 88 411 l 88 562 z "},"d":{"ha":415,"x_min":83,"x_max":338,"o":"m 86 971 q 252 833 194 936 q 338 469 338 656 l 338 456 q 146 22 338 190 q 113 14 121 14 q 102 57 106 14 l 105 62 q 94 239 97 125 l 97 239 l 94 244 l 94 247 q 97 442 94 354 l 83 971 l 86 971 m 124 445 q 121 296 121 372 l 121 263 q 132 46 121 160 q 249 187 195 100 q 311 448 311 326 l 311 475 q 227 822 311 645 q 113 930 167 913 l 113 928 q 124 445 116 621 z "},"e":{"ha":390,"x_min":111,"x_max":320,"o":"m 122 932 l 152 932 q 195 935 168 932 l 201 932 q 203 935 203 932 q 290 916 290 927 l 290 913 q 277 900 286 900 l 198 908 q 144 905 191 908 l 146 873 q 160 515 146 829 l 179 515 q 214 517 201 515 q 304 512 275 512 l 312 501 l 312 493 q 301 485 312 485 q 222 490 277 485 q 160 488 186 488 l 160 477 q 179 35 160 286 q 182 32 182 35 q 304 37 284 37 q 320 24 315 34 l 320 21 q 309 10 320 17 q 184 5 206 7 q 152 40 152 5 q 133 471 133 299 l 133 558 q 119 881 119 797 q 111 924 111 922 l 122 932 z "},"f":{"ha":380,"x_min":93,"x_max":296,"o":"m 93 912 q 123 920 104 920 q 286 915 234 915 l 291 907 q 275 888 291 888 q 120 890 205 890 l 134 551 l 134 549 l 136 516 q 218 522 178 522 l 288 522 q 296 505 294 522 l 283 494 l 207 494 q 139 484 139 494 l 139 454 q 144 128 139 414 l 144 98 l 147 82 q 144 79 147 79 l 147 52 l 147 22 q 139 14 147 18 l 131 14 q 120 25 127 14 q 104 595 110 595 l 106 595 l 104 600 q 93 912 93 813 z "},"g":{"ha":496,"x_min":111,"x_max":363,"o":"m 111 401 q 171 52 111 165 q 250 0 205 10 l 260 0 q 301 14 301 8 q 363 228 345 14 q 361 236 363 231 q 363 279 363 264 l 363 347 q 353 399 363 388 q 236 415 245 408 l 228 415 q 220 407 220 411 l 220 404 l 222 391 q 331 374 222 382 q 334 377 331 377 l 336 363 l 336 231 q 309 68 319 68 q 260 27 309 37 l 250 27 q 187 79 203 46 q 138 399 138 189 q 220 863 138 843 l 231 863 q 269 854 251 863 q 304 836 298 836 q 315 846 315 842 l 315 852 q 233 890 285 890 l 228 890 l 201 887 q 111 401 111 848 z "},"h":{"ha":406,"x_min":98,"x_max":307,"o":"m 106 13 l 106 37 q 103 186 106 148 q 106 349 106 253 l 106 390 q 98 574 98 523 q 106 960 106 877 q 103 979 103 970 l 114 987 l 119 987 q 133 965 133 979 q 125 558 133 915 l 125 509 l 127 504 q 271 512 145 509 q 269 653 269 610 l 269 778 q 266 789 269 784 l 269 794 q 271 995 271 924 l 282 1003 l 288 1003 q 298 989 298 998 q 293 791 298 862 l 298 509 q 304 496 304 500 q 298 488 301 488 q 307 45 304 361 q 304 -9 304 31 l 296 -14 l 288 -14 l 277 -6 q 279 40 277 23 q 271 485 277 411 q 127 477 144 482 q 133 376 133 427 q 130 186 133 269 q 133 7 133 140 q 117 2 124 2 q 106 13 113 2 z "},"i":{"ha":288,"x_min":125,"x_max":169,"o":"m 153 469 q 155 448 153 458 q 153 222 153 306 l 153 46 q 158 19 153 41 q 147 0 155 0 l 136 0 q 125 73 125 0 q 142 722 125 544 l 142 798 q 134 911 142 861 q 144 922 134 916 l 150 922 q 169 779 169 922 l 169 743 q 153 469 169 690 z "},"j":{"ha":330,"x_min":37,"x_max":219,"o":"m 127 0 q 54 46 54 18 q 37 174 40 54 q 51 182 46 182 q 64 163 64 178 q 105 35 64 35 q 132 27 119 27 l 135 27 q 192 182 181 27 l 192 195 q 186 366 186 338 l 186 399 q 184 787 186 549 q 178 865 178 823 l 178 884 q 192 898 178 888 q 208 892 199 898 q 205 857 208 891 q 214 380 214 756 l 214 361 q 219 187 214 334 q 138 0 209 0 l 127 0 z "},"k":{"ha":427,"x_min":79,"x_max":361,"o":"m 165 418 l 190 5 l 182 0 l 171 0 q 157 14 168 0 l 157 16 q 163 33 157 24 q 117 667 138 474 q 79 941 79 883 l 79 949 q 90 960 79 954 l 95 960 q 106 949 99 960 l 106 936 q 155 570 114 858 q 163 461 163 476 l 165 461 q 260 909 260 828 l 260 936 q 258 958 260 939 l 269 966 q 288 955 283 966 l 288 941 q 233 624 288 822 q 187 439 222 572 q 323 182 227 439 q 361 16 345 114 l 361 8 q 353 0 361 4 l 345 0 q 331 22 331 7 l 331 24 q 334 27 331 27 q 258 277 298 191 q 165 418 198 418 z "},"l":{"ha":390,"x_min":93,"x_max":304,"o":"m 123 944 q 142 445 142 648 q 150 263 150 379 l 150 27 l 296 27 q 304 19 300 27 l 304 11 q 258 0 304 0 l 134 0 q 123 11 130 0 l 123 27 q 125 46 123 46 l 123 79 l 123 277 q 101 871 112 634 l 93 960 q 112 974 97 974 l 115 974 q 125 963 119 974 q 120 949 125 949 l 123 944 z "},"m":{"ha":492,"x_min":69,"x_max":433,"o":"m 85 940 l 69 932 q 117 32 93 741 q 132 16 117 16 l 148 24 l 109 806 l 109 814 l 117 814 q 267 458 243 460 q 377 774 279 468 l 385 774 l 385 442 q 416 0 401 0 l 433 8 q 409 474 409 410 q 416 884 409 642 l 416 911 l 409 924 l 401 924 q 267 505 267 534 l 259 505 q 85 940 101 935 z "},"n":{"ha":464,"x_min":84,"x_max":392,"o":"m 100 937 q 84 921 87 937 l 84 451 q 100 27 84 264 q 115 12 100 12 l 130 12 q 107 513 107 209 q 113 724 107 573 l 112 747 q 107 836 112 779 l 108 851 l 113 842 l 184 597 q 377 -3 361 -3 l 392 4 q 377 613 377 377 l 377 690 q 385 921 377 767 l 369 929 q 354 913 356 929 l 354 721 q 349 635 354 689 q 349 604 349 612 q 346 521 346 533 q 361 151 346 480 l 361 127 l 354 127 q 222 567 238 479 q 100 937 115 937 z "},"o":{"ha":422,"x_min":65,"x_max":331,"o":"m 65 382 l 73 271 q 195 19 98 43 l 214 19 q 252 30 224 19 q 331 382 331 96 q 328 399 331 385 q 331 418 331 402 l 331 420 q 328 439 331 436 q 331 464 331 454 l 331 475 q 328 564 331 530 q 206 930 283 930 q 160 911 185 930 q 65 382 65 764 m 133 122 q 92 391 92 237 q 168 873 92 713 q 206 903 174 891 q 247 844 227 889 q 304 477 304 637 l 304 423 q 274 122 304 193 q 203 46 258 46 l 201 46 q 133 122 171 46 z "},"p":{"ha":376,"x_min":102,"x_max":311,"o":"m 124 30 q 127 33 124 33 q 119 103 122 59 q 121 106 119 106 l 113 220 q 116 260 116 247 q 113 323 113 310 q 102 336 102 328 q 113 347 105 347 q 108 434 108 419 l 121 928 q 116 933 116 928 l 116 941 q 127 952 116 945 q 300 836 254 952 q 311 773 309 809 q 252 401 311 604 q 173 328 224 353 q 140 320 140 326 l 140 317 q 143 258 140 281 q 140 231 140 234 q 149 54 149 77 q 157 33 157 53 l 157 24 q 140 0 149 3 l 135 0 q 124 11 131 0 l 124 30 m 281 719 q 284 784 284 768 q 203 911 284 854 q 149 925 179 920 l 135 434 q 138 355 138 377 l 143 353 q 205 385 174 353 q 281 719 252 415 z "},"q":{"ha":469,"x_min":102,"x_max":404,"o":"m 159 925 q 222 949 205 949 q 300 800 273 949 q 347 396 347 652 l 347 258 q 330 136 347 214 q 404 11 404 22 l 404 8 q 395 0 404 4 l 387 0 q 322 103 368 14 l 317 103 q 265 65 298 65 q 116 326 147 65 q 102 640 102 452 q 159 925 102 880 m 208 125 q 265 92 224 92 q 300 133 286 92 q 222 258 222 251 l 222 260 q 233 271 222 264 l 238 271 q 306 174 251 262 l 311 174 q 319 247 319 231 l 319 412 q 243 903 319 687 q 224 920 242 903 l 222 920 q 168 892 174 905 q 130 640 130 842 q 208 125 130 193 z "},"r":{"ha":404,"x_min":83,"x_max":317,"o":"m 124 90 q 138 79 134 79 q 154 90 149 79 l 154 95 q 149 247 154 113 l 149 350 q 146 437 149 378 l 149 437 q 224 396 181 437 q 287 187 287 289 l 287 90 q 290 8 287 62 l 300 0 l 309 0 l 317 5 q 314 73 314 50 l 314 176 q 176 458 295 430 q 279 716 279 538 l 279 743 q 233 909 279 797 q 149 985 200 964 q 100 1001 107 991 l 94 1001 l 83 993 q 119 453 105 825 q 105 442 111 453 l 105 434 q 121 423 110 423 l 121 260 q 127 109 121 223 l 124 90 m 252 703 q 146 472 252 544 q 116 963 132 765 l 124 963 q 192 922 147 963 q 252 741 252 812 l 252 703 z "},"s":{"ha":390,"x_min":56,"x_max":335,"o":"m 56 708 q 88 863 56 795 q 235 916 125 916 l 243 906 l 243 901 q 229 888 243 898 l 202 888 q 104 835 130 888 q 83 703 83 776 q 121 558 83 659 q 267 411 134 531 q 335 218 335 313 q 302 71 335 143 q 221 13 288 37 q 183 0 197 0 q 164 10 169 0 l 164 18 q 194 28 164 25 q 283 99 283 62 q 308 226 308 148 q 216 427 308 328 q 107 533 143 481 q 58 673 83 559 q 56 708 58 686 z "},"t":{"ha":418,"x_min":56,"x_max":351,"o":"m 56 869 q 66 878 56 873 q 88 873 85 873 q 161 878 140 878 l 273 878 q 343 883 307 878 l 351 873 l 351 867 q 275 855 351 855 l 199 855 q 191 846 195 855 l 197 722 q 194 703 194 705 q 218 115 218 292 q 221 107 221 110 q 218 100 218 103 l 221 84 q 213 75 217 75 l 202 75 q 191 84 199 75 q 194 110 191 89 q 170 696 194 168 q 164 852 170 782 l 159 855 l 151 855 l 64 848 q 56 869 56 857 z "},"u":{"ha":473,"x_min":125,"x_max":351,"o":"m 136 955 l 142 955 q 155 933 155 948 l 155 920 q 215 209 180 478 q 288 27 239 27 q 323 79 323 42 q 302 616 323 185 q 304 768 304 694 l 304 833 l 302 849 l 304 854 q 296 930 302 891 l 307 939 l 315 939 q 332 863 327 939 q 329 857 332 857 q 332 798 332 817 l 332 711 l 329 694 q 332 692 329 692 q 329 646 329 660 l 329 635 q 351 79 351 163 q 280 0 343 0 q 182 260 207 0 q 125 947 153 492 l 136 955 z "},"v":{"ha":429,"x_min":106,"x_max":326,"o":"m 185 155 q 115 871 115 602 l 106 906 q 117 917 106 910 l 123 917 q 147 705 147 917 q 212 138 182 317 l 215 138 q 291 841 215 194 q 307 933 296 933 l 318 933 q 326 922 322 933 l 245 195 q 229 3 235 3 l 223 0 l 215 0 q 185 155 202 0 z "},"w":{"ha":574,"x_min":102,"x_max":479,"o":"m 113 868 l 124 868 q 154 713 136 868 q 219 304 203 392 l 246 157 l 249 157 q 279 534 271 515 l 292 537 q 317 431 306 537 q 387 179 330 366 l 412 92 l 417 95 q 455 887 433 581 l 463 892 l 471 892 q 479 884 475 892 q 441 71 450 294 q 422 22 433 22 l 417 22 q 366 157 403 22 q 295 410 295 386 l 292 410 q 271 5 271 95 l 262 0 l 254 0 q 233 92 243 0 q 113 819 173 373 q 102 857 111 819 q 113 868 102 861 z "},"x":{"ha":566,"x_min":83,"x_max":509,"o":"m 83 887 l 83 890 l 94 898 l 100 898 q 168 746 111 898 l 281 502 q 317 735 290 502 q 349 933 338 898 l 363 933 q 371 925 367 933 l 371 917 q 306 450 344 741 q 452 127 395 279 l 509 14 l 509 11 q 498 0 509 7 l 496 0 q 471 30 475 0 q 349 307 429 102 q 300 404 345 307 l 295 404 q 233 136 284 348 q 211 52 218 52 l 197 52 q 186 62 193 52 q 276 450 276 423 q 83 887 151 707 z "},"y":{"ha":441,"x_min":74,"x_max":361,"o":"m 291 534 q 112 819 220 685 q 96 846 104 843 l 85 846 q 74 836 74 840 l 74 830 q 96 800 74 816 q 288 480 215 640 q 245 14 275 371 q 256 0 250 1 l 264 0 l 269 3 q 288 203 280 69 q 318 472 309 472 l 318 480 l 315 496 q 361 876 340 682 l 361 879 q 351 890 355 890 l 345 890 l 337 884 q 294 534 323 793 l 291 534 z "},"z":{"ha":492,"x_min":106,"x_max":375,"o":"m 106 808 q 117 819 106 812 l 123 819 q 296 803 123 809 q 345 779 345 798 l 345 776 q 201 282 286 612 q 142 35 142 121 q 215 30 164 30 q 334 33 241 30 q 353 27 353 31 l 359 30 l 364 30 q 375 19 368 30 l 375 11 q 359 0 375 5 q 315 5 336 5 q 191 3 277 5 q 115 8 145 8 q 109 22 109 17 q 172 285 109 89 q 261 613 188 331 q 313 770 294 704 q 117 787 279 778 q 106 808 106 798 z "},"{":{"ha":362,"x_min":74,"x_max":304,"o":"m 74 471 l 134 520 q 150 572 150 541 q 112 851 112 698 l 112 854 q 234 1065 112 1005 l 239 1065 q 250 1055 243 1065 l 250 1044 q 207 1017 250 1039 q 139 854 139 962 l 139 848 q 174 585 139 704 l 174 550 q 112 466 174 511 q 188 295 180 433 l 188 238 q 185 48 188 172 q 223 -39 185 7 q 304 -90 304 -85 l 304 -98 q 296 -106 304 -102 q 188 -39 246 -97 q 158 48 158 10 l 158 51 q 161 214 161 155 l 161 295 q 87 450 161 412 q 74 471 74 456 z "},"|":{"ha":688,"x_min":288,"x_max":331,"o":"m 315 465 q 317 433 315 448 q 315 92 315 218 l 315 -174 q 320 -215 315 -182 q 309 -243 317 -243 l 298 -243 q 288 -133 288 -243 q 304 846 288 578 l 304 961 q 296 1133 304 1057 q 307 1149 296 1139 l 312 1149 q 331 932 331 1149 l 331 879 q 315 465 331 800 z "},"}":{"ha":408,"x_min":56,"x_max":292,"o":"m 66 1074 l 56 1065 l 58 1046 q 159 995 131 1027 q 218 751 218 954 l 218 715 q 210 588 218 668 q 254 482 210 531 l 254 479 q 227 379 227 456 q 256 16 256 66 q 216 -109 256 -90 q 178 -123 178 -115 l 178 -134 q 186 -142 182 -142 l 197 -142 q 221 -136 203 -142 q 283 13 283 -114 q 254 382 283 62 q 256 422 254 406 q 292 474 256 448 l 292 482 q 237 585 237 534 q 245 743 245 673 l 245 753 l 243 759 q 245 762 245 759 l 245 772 l 243 778 l 245 778 q 210 976 245 907 q 66 1074 172 1042 z "},"¡":{"ha":302,"x_min":116,"x_max":197,"o":"m 149 176 q 146 166 146 172 q 197 -252 146 90 q 178 -268 197 -268 q 168 -258 174 -268 l 170 -244 q 119 225 119 56 q 116 507 119 281 l 124 513 l 132 513 q 143 499 138 511 q 146 209 146 303 l 149 176 m 162 670 q 138 643 162 654 q 119 662 119 643 q 143 694 123 694 q 162 670 162 686 z "},"¢":{"ha":427,"x_min":0,"x_max":374,"o":"m 60 543 q 150 882 65 817 q 201 901 190 901 l 220 901 q 269 865 269 892 q 258 854 269 861 l 248 854 q 210 876 230 876 q 142 833 142 852 q 87 551 87 730 l 87 505 q 120 214 87 384 q 174 46 140 90 q 248 8 216 9 q 334 68 288 8 l 342 68 q 351 60 347 68 l 351 54 q 291 -8 351 30 q 245 -19 266 -19 l 242 -19 q 158 24 202 -14 q 74 334 110 62 q 60 526 60 392 l 60 543 m 355 838 l 363 838 q 374 827 368 838 l 374 822 q 293 640 354 798 q 30 8 184 427 q 11 0 20 0 q 0 16 0 5 q 163 429 22 60 q 342 827 270 652 l 355 838 z "},"£":{"ha":571,"x_min":83,"x_max":526,"o":"m 108 498 l 113 498 q 162 471 133 475 l 162 474 q 127 726 127 640 q 208 886 127 846 l 219 886 q 260 873 260 886 l 260 867 q 249 857 260 863 q 214 859 248 857 q 154 729 154 821 l 154 713 q 192 466 154 641 q 330 444 296 452 l 336 436 l 336 431 q 322 420 330 420 q 192 436 279 428 l 192 409 q 151 257 192 366 q 111 97 111 123 l 111 86 q 178 102 135 102 q 477 64 205 102 q 501 86 501 68 l 507 89 l 517 89 q 526 81 522 89 q 485 40 522 40 l 463 40 l 184 75 l 173 75 q 113 40 123 75 l 108 37 l 97 37 q 83 89 83 37 l 83 92 q 165 387 83 144 l 165 444 q 94 477 94 458 q 108 498 94 491 z "},"¥":{"ha":575,"x_min":60,"x_max":489,"o":"m 294 580 q 315 553 313 553 l 318 553 l 391 794 q 408 813 404 813 l 413 813 q 424 800 424 808 q 337 520 405 749 l 340 520 q 429 528 374 528 q 440 517 433 528 l 440 512 q 429 501 440 508 l 424 501 q 326 490 376 501 q 329 431 329 450 l 329 409 l 470 433 q 489 420 488 427 l 489 412 q 475 401 488 406 l 465 406 q 332 379 342 385 q 337 70 332 250 l 329 64 l 321 64 q 310 83 314 64 q 304 374 304 279 l 302 374 q 207 357 228 366 q 196 368 203 357 q 272 398 196 394 q 304 404 283 398 q 299 485 304 414 q 199 477 231 477 l 193 485 l 193 493 q 207 504 199 504 q 304 515 248 504 l 304 520 q 101 756 244 602 q 60 797 60 779 q 71 808 60 801 q 294 580 106 805 z "},"©":{"ha":701,"x_min":125,"x_max":541,"o":"m 288 806 l 321 806 q 459 720 398 791 q 541 500 541 606 q 427 310 541 377 q 318 283 358 283 q 144 429 215 283 q 125 554 125 491 l 125 559 q 207 766 125 675 q 277 793 230 783 q 288 806 277 801 m 286 315 q 321 310 313 310 q 462 367 383 310 q 513 503 513 433 q 437 703 513 595 q 310 779 366 779 q 248 758 310 768 q 174 668 205 740 q 153 557 153 601 l 153 549 q 286 315 153 378 m 261 532 q 321 448 261 460 l 353 451 l 359 443 l 359 440 q 340 421 359 421 l 315 421 q 234 524 254 421 l 234 535 q 283 635 234 615 q 326 646 304 646 l 334 635 q 296 614 334 614 q 261 532 261 598 z "},"ª":{"ha":439,"x_min":0,"x_max":0,"o":""},"®":{"ha":715,"x_min":153,"x_max":555,"o":"m 476 690 q 316 812 391 797 l 275 812 l 262 804 q 153 597 153 772 q 251 307 153 434 q 365 250 319 250 l 373 250 q 471 269 414 250 q 555 435 555 310 l 555 443 q 476 690 555 568 m 376 277 q 281 315 338 277 q 180 600 180 433 l 180 603 q 224 752 180 701 q 305 785 245 776 l 313 785 q 460 668 374 771 q 530 443 530 538 q 490 315 530 369 q 381 277 490 294 l 376 277 m 286 424 q 297 440 292 424 q 289 530 294 446 l 289 532 q 387 467 337 526 q 433 391 429 392 l 444 391 q 452 399 452 395 l 452 410 q 430 451 430 444 q 319 551 375 537 l 319 554 q 359 638 359 598 l 359 644 q 278 709 359 700 q 229 673 229 699 q 270 440 252 673 q 267 437 267 440 q 275 424 271 424 l 286 424 m 278 682 q 300 676 300 680 q 335 638 326 676 q 289 565 326 596 l 286 565 q 264 673 274 653 q 278 682 264 678 z "},"¯":{"ha":454,"x_min":0,"x_max":0,"o":""},"±":{"ha":688,"x_min":0,"x_max":0,"o":""},"²":{"ha":688,"x_min":0,"x_max":0,"o":""},"³":{"ha":688,"x_min":0,"x_max":0,"o":""},"µ":{"ha":800,"x_min":0,"x_max":0,"o":""},"¹":{"ha":688,"x_min":0,"x_max":0,"o":""},"º":{"ha":487,"x_min":0,"x_max":0,"o":""},"¼":{"ha":1158,"x_min":0,"x_max":0,"o":""},"½":{"ha":1332,"x_min":0,"x_max":0,"o":""},"¾":{"ha":1158,"x_min":0,"x_max":0,"o":""},"¿":{"ha":450,"x_min":88,"x_max":346,"o":"m 346 -108 l 346 -70 q 332 -49 346 -56 l 321 -49 q 311 -68 311 -54 l 311 -70 l 319 -81 l 319 -106 q 232 -182 319 -158 q 167 -163 209 -182 q 113 -60 113 -117 q 159 138 113 40 q 213 347 213 211 q 205 439 205 436 q 208 456 208 444 q 199 467 206 467 l 191 467 q 180 448 180 462 l 180 418 q 186 347 180 392 q 164 206 186 251 q 88 -54 88 82 l 88 -73 q 126 -163 88 -115 q 227 -209 174 -209 l 237 -209 q 346 -108 346 -178 m 199 646 q 224 667 222 659 q 199 694 221 694 q 178 673 178 694 l 178 659 q 191 646 188 646 l 199 646 z "},"À":{"ha":501,"x_min":88,"x_max":382,"o":"m 88 30 q 109 374 109 316 q 106 450 106 412 q 139 863 108 645 q 178 926 152 926 l 181 926 q 247 830 220 908 q 358 234 322 597 q 382 27 382 116 q 363 18 378 18 q 331 234 353 39 q 304 414 325 255 l 283 416 q 136 387 136 403 l 136 281 l 118 30 q 124 12 124 20 q 112 0 124 7 q 88 30 88 0 m 136 431 l 136 422 q 301 446 222 446 l 301 450 q 211 842 301 532 q 178 890 191 884 q 139 497 139 738 q 136 431 136 497 m 145 1120 q 155 1130 152 1130 l 165 1130 q 309 1053 234 1081 q 317 1039 317 1045 q 304 1025 317 1031 l 299 1025 q 155 1101 221 1050 q 145 1120 145 1109 z "},"Á":{"ha":501,"x_min":88,"x_max":382,"o":"m 109 374 q 88 30 109 316 q 112 0 88 0 q 124 12 124 7 q 118 30 124 20 l 136 281 l 136 387 q 283 416 136 403 l 304 414 q 331 234 325 255 q 363 18 353 39 q 382 27 378 18 q 358 234 382 116 q 247 830 322 597 q 181 926 220 908 l 178 926 q 139 863 152 926 q 106 450 108 645 q 109 374 106 412 m 139 497 q 178 890 139 738 q 211 842 191 884 q 301 450 301 532 l 301 446 q 136 422 222 446 l 136 431 q 139 497 136 497 m 149 1021 l 149 1020 q 165 1006 149 1008 l 169 1006 q 176 1008 173 1006 q 248 1046 190 1017 q 314 1084 314 1075 q 296 1102 314 1102 l 292 1102 q 248 1084 283 1102 q 149 1021 149 1036 z "},"Â":{"ha":501,"x_min":88,"x_max":382,"o":"m 136 387 l 136 281 l 118 30 q 124 12 124 20 q 112 0 124 7 q 88 30 88 0 q 109 374 109 316 q 106 450 106 412 q 139 863 108 645 q 178 926 152 926 l 181 926 q 247 830 220 908 q 358 234 322 597 q 382 27 382 116 q 363 18 378 18 q 331 234 353 39 q 304 414 325 255 l 283 416 q 136 387 136 403 m 136 422 q 301 446 222 446 l 301 450 q 211 842 301 532 q 178 890 191 884 q 139 497 139 738 q 136 431 136 497 l 136 422 m 92 1025 l 92 1029 q 159 1120 93 1053 l 165 1120 q 267 1050 202 1103 l 267 1039 q 253 1031 264 1031 q 166 1088 250 1031 l 165 1088 q 111 1019 147 1069 l 103 1015 q 92 1025 95 1018 z "},"Ã":{"ha":501,"x_min":86,"x_max":385,"o":"m 110 374 q 107 450 107 412 q 140 863 109 645 q 179 926 153 926 l 182 926 q 248 830 220 908 q 359 234 323 597 q 382 27 382 116 q 364 18 379 18 q 332 234 353 39 q 304 414 326 255 l 283 416 q 137 387 137 403 l 137 281 l 119 30 q 125 12 125 20 q 113 0 125 7 q 89 30 89 0 q 110 374 110 316 m 302 446 l 302 450 q 212 842 302 532 q 179 890 192 884 q 140 497 140 738 q 137 431 137 497 l 137 422 q 302 446 222 446 m 222 1026 q 165 1042 182 1042 q 108 988 133 1042 l 97 988 q 86 1007 86 993 q 165 1069 118 1069 q 300 1015 203 1069 l 322 1015 q 357 1048 346 1015 l 355 1053 l 355 1064 q 366 1075 355 1068 l 376 1075 q 385 1067 380 1075 l 385 1064 q 338 991 385 1006 q 325 988 334 988 q 222 1026 275 988 z "},"Ä":{"ha":501,"x_min":68,"x_max":362,"o":"m 117 281 l 98 30 q 104 12 104 20 q 92 0 104 7 q 68 30 68 0 q 90 374 90 316 q 87 450 87 412 q 119 863 88 645 q 159 926 132 926 l 161 926 q 227 830 200 908 q 338 234 302 597 q 362 27 362 116 q 344 18 359 18 q 311 234 333 39 q 284 414 305 255 l 263 416 q 117 387 117 403 l 117 281 m 159 890 q 119 497 119 738 q 117 431 117 497 l 117 422 q 281 446 202 446 l 281 450 q 191 842 281 532 q 159 890 172 884 m 230 1032 l 225 1032 q 207 1058 207 1036 l 207 1059 q 225 1080 207 1075 l 227 1080 q 246 1053 241 1080 l 246 1050 q 230 1032 241 1032 m 123 1064 q 136 1082 125 1082 l 142 1082 q 163 1063 157 1082 q 142 1044 163 1048 l 136 1044 q 123 1062 124 1044 l 123 1064 z "},"Å":{"ha":501,"x_min":88,"x_max":382,"o":"m 181 926 q 247 830 220 908 q 358 234 322 597 q 382 27 382 116 q 363 18 378 18 q 331 234 353 39 q 304 414 325 255 l 283 416 q 136 387 136 403 l 136 281 l 118 30 q 124 12 124 20 q 112 0 124 7 q 88 30 88 0 q 109 374 109 316 q 106 450 106 412 q 139 863 108 645 q 178 926 152 926 l 181 926 m 136 431 l 136 422 q 301 446 222 446 l 301 450 q 211 842 301 532 q 178 890 191 884 q 139 497 139 738 q 136 431 136 497 m 144 1084 q 137 1112 137 1097 q 182 1154 137 1144 q 200 1158 195 1158 q 238 1106 229 1158 l 238 1097 q 201 1055 231 1055 q 194 1054 201 1054 q 144 1084 163 1054 m 194 1080 q 212 1099 212 1082 l 212 1107 q 199 1133 210 1120 l 197 1133 q 163 1111 163 1126 l 163 1109 q 194 1080 163 1088 z "},"Æ":{"ha":584,"x_min":88,"x_max":518,"o":"m 486 35 l 491 38 l 502 38 q 513 27 506 38 l 513 22 q 502 11 513 18 l 475 11 l 391 0 q 382 3 385 3 l 377 0 q 347 33 349 0 l 347 79 q 347 100 347 87 q 331 234 340 151 q 304 414 325 255 l 283 416 q 136 387 136 403 l 136 281 l 118 30 q 124 12 124 20 q 112 0 124 7 q 88 30 88 0 q 109 374 109 316 q 106 450 106 412 q 139 863 108 645 q 178 926 152 926 l 181 926 q 247 830 220 908 q 354 271 318 609 q 382 760 363 446 l 382 770 q 366 933 382 897 q 377 944 366 937 q 439 933 405 933 q 513 936 494 936 l 518 928 l 518 917 q 510 909 518 913 q 434 906 495 909 l 401 909 q 410 760 410 857 q 393 480 393 523 q 507 464 393 473 l 515 453 l 515 448 q 502 437 514 442 q 391 445 459 445 q 375 130 378 236 q 382 27 382 75 l 382 27 l 486 38 l 486 35 m 136 431 l 136 422 q 301 446 222 446 l 301 450 q 211 842 301 532 q 178 890 191 884 q 139 497 139 738 q 136 431 136 497 z "},"Ç":{"ha":431,"x_min":88,"x_max":378,"o":"m 88 562 q 178 901 93 836 q 229 920 218 920 l 248 920 q 297 884 297 911 q 286 873 297 880 l 275 873 q 237 895 258 895 q 170 852 170 871 q 115 570 115 749 l 115 524 q 148 233 115 403 q 202 65 168 109 q 275 27 244 28 q 362 87 315 27 l 370 87 q 378 79 374 87 l 378 73 q 319 11 378 49 q 273 0 294 0 l 270 0 q 254 3 262 1 q 254 -25 254 -13 l 254 -37 q 257 -41 254 -41 l 292 -41 q 337 -77 327 -41 l 337 -84 q 271 -164 337 -141 l 260 -165 q 231 -155 231 -163 l 231 -152 q 247 -143 232 -148 q 290 -112 255 -134 q 306 -81 306 -89 q 294 -70 306 -70 l 275 -70 q 268 -72 271 -70 q 222 -26 222 -72 q 227 14 222 1 q 186 43 207 25 q 102 353 138 81 q 88 545 88 411 l 88 562 m 241 27 q 227 14 232 27 q 254 3 241 7 q 256 17 255 9 q 241 27 252 27 z "},"È":{"ha":390,"x_min":102,"x_max":325,"o":"m 116 924 l 127 932 l 157 932 q 200 935 172 932 l 205 932 q 208 935 208 932 q 295 916 295 927 l 295 913 q 281 900 290 900 l 203 908 q 149 905 195 908 l 151 873 q 165 515 151 829 l 184 515 q 219 517 206 515 q 309 512 280 512 l 317 501 l 317 493 q 306 485 317 485 q 227 490 282 485 q 165 488 191 488 l 165 477 q 184 35 165 286 q 186 32 186 35 q 309 37 289 37 q 325 24 320 34 l 325 21 q 314 10 325 17 q 189 5 211 7 q 157 40 157 5 q 138 471 138 299 l 138 558 q 124 881 124 797 q 116 924 116 922 m 262 1025 l 256 1025 q 113 1101 178 1050 q 102 1120 102 1109 q 113 1130 109 1130 l 122 1130 q 267 1053 191 1081 q 274 1039 274 1045 q 262 1025 274 1031 z "},"É":{"ha":390,"x_min":102,"x_max":311,"o":"m 111 881 q 102 924 102 922 l 113 932 l 143 932 q 186 935 159 932 l 192 932 q 195 935 195 932 q 281 916 281 927 l 281 913 q 268 900 277 900 l 189 908 q 135 905 182 908 l 138 873 q 151 515 138 829 l 170 515 q 205 517 193 515 q 295 512 267 512 l 303 501 l 303 493 q 292 485 303 485 q 214 490 269 485 q 151 488 177 488 l 151 477 q 170 35 151 286 q 173 32 173 35 q 295 37 275 37 q 311 24 307 34 l 311 21 q 300 10 311 17 q 176 5 197 7 q 143 40 143 5 q 124 471 124 299 l 124 558 q 111 881 111 797 m 223 1084 q 267 1102 258 1102 l 271 1102 q 289 1084 289 1102 q 223 1046 289 1075 q 151 1008 165 1017 q 144 1006 148 1006 l 140 1006 q 124 1020 124 1008 l 124 1021 q 223 1084 124 1036 z "},"Ê":{"ha":390,"x_min":100,"x_max":315,"o":"m 117 932 l 106 924 q 115 881 106 922 q 128 558 115 797 l 128 471 q 147 40 128 299 q 180 5 147 5 q 304 10 201 7 q 315 21 315 17 l 315 24 q 299 37 311 34 q 177 32 279 37 q 174 35 177 35 q 155 477 155 286 l 155 488 q 218 490 181 488 q 296 485 273 485 q 307 493 307 485 l 307 501 l 299 512 q 210 517 271 512 q 174 515 197 515 l 155 515 q 142 873 142 829 l 139 905 q 193 908 186 908 l 272 900 q 286 913 281 900 l 286 916 q 199 935 286 927 q 196 932 199 932 l 191 935 q 147 932 163 932 l 117 932 m 174 1120 l 168 1120 q 100 1029 102 1053 l 100 1025 q 112 1015 104 1018 l 120 1019 q 174 1088 156 1069 l 175 1088 q 262 1031 258 1031 q 276 1039 273 1031 l 276 1050 q 174 1120 211 1103 z "},"Ë":{"ha":390,"x_min":98,"x_max":307,"o":"m 147 515 l 166 515 q 201 517 189 515 q 291 512 262 512 l 299 501 l 299 493 q 288 485 299 485 q 210 490 264 485 q 147 488 173 488 l 147 477 q 166 35 147 286 q 169 32 169 35 q 291 37 271 37 q 307 24 302 34 l 307 21 q 296 10 307 17 q 172 5 193 7 q 139 40 139 5 q 120 471 120 299 l 120 558 q 106 881 106 797 q 98 924 98 922 l 109 932 l 139 932 q 182 935 155 932 l 188 932 q 191 935 191 932 q 277 916 277 927 l 277 913 q 264 900 273 900 l 185 908 q 131 905 178 908 l 134 873 q 147 515 134 829 m 197 1059 q 215 1080 197 1075 l 217 1080 q 236 1053 231 1080 l 236 1050 q 220 1032 231 1032 l 215 1032 q 197 1058 197 1036 l 197 1059 m 113 1062 l 113 1064 q 125 1082 115 1082 l 132 1082 q 153 1063 146 1082 q 132 1044 153 1048 l 125 1044 q 113 1062 114 1044 z "},"Ì":{"ha":288,"x_min":98,"x_max":270,"o":"m 167 73 q 183 722 167 544 l 183 798 q 175 911 183 861 q 186 922 175 916 l 191 922 q 210 779 210 922 l 210 743 q 194 469 210 690 q 197 448 194 458 q 194 222 194 306 l 194 46 q 199 19 194 41 q 189 0 196 0 l 178 0 q 167 73 167 0 m 258 1025 l 252 1025 q 109 1101 174 1050 q 98 1120 98 1109 q 109 1130 105 1130 l 118 1130 q 262 1053 187 1081 q 270 1039 270 1045 q 258 1025 270 1031 z "},"Í":{"ha":288,"x_min":92,"x_max":257,"o":"m 142 722 q 125 73 125 544 q 136 0 125 0 l 147 0 q 158 19 155 0 q 153 46 153 41 l 153 222 q 155 448 153 306 q 153 469 153 458 q 169 743 169 690 l 169 779 q 150 922 169 922 l 144 922 q 134 911 134 916 q 142 798 142 861 l 142 722 m 92 1021 l 92 1020 q 109 1006 92 1008 l 112 1006 q 119 1008 116 1006 q 191 1046 133 1017 q 257 1084 257 1075 q 239 1102 257 1102 l 235 1102 q 191 1084 227 1102 q 92 1021 92 1036 z "},"Î":{"ha":288,"x_min":60,"x_max":235,"o":"m 137 722 q 121 73 121 544 q 132 0 121 0 l 142 0 q 153 19 150 0 q 148 46 148 41 l 148 222 q 151 448 148 306 q 148 469 148 458 q 164 743 164 690 l 164 779 q 145 922 164 922 l 140 922 q 129 911 129 916 q 137 798 137 861 l 137 722 m 60 1029 l 60 1025 q 71 1015 63 1018 l 79 1019 q 133 1088 115 1069 l 134 1088 q 221 1031 218 1031 q 235 1039 232 1031 l 235 1050 q 133 1120 170 1103 l 127 1120 q 60 1029 61 1053 z "},"Ï":{"ha":288,"x_min":58,"x_max":181,"o":"m 115 722 l 115 798 q 106 911 115 861 q 117 922 106 916 l 123 922 q 142 779 142 922 l 142 743 q 125 469 142 690 q 128 448 125 458 q 125 222 125 306 l 125 46 q 131 19 125 41 q 120 0 127 0 l 109 0 q 98 73 98 0 q 115 722 98 544 m 160 1080 l 162 1080 q 181 1053 176 1080 l 181 1050 q 165 1032 176 1032 l 160 1032 q 142 1058 142 1036 l 142 1059 q 160 1080 142 1075 m 58 1062 l 58 1064 q 71 1082 60 1082 l 77 1082 q 98 1063 92 1082 q 77 1044 98 1048 l 71 1044 q 58 1062 59 1044 z "},"Ð":{"ha":415,"x_min":-97,"x_max":597,"o":"m 86 971 q 252 833 194 936 q 338 469 338 656 l 338 456 q 146 22 338 190 q 113 14 121 14 q 102 57 106 14 l 105 62 q 94 239 97 125 l 97 239 l 94 244 l 94 247 q 97 442 94 354 l 83 971 l 86 971 m 124 445 q 121 296 121 372 l 121 263 q 132 46 121 160 q 249 187 195 100 q 311 448 311 326 l 311 475 q 227 822 311 645 q 113 930 167 913 l 113 928 q 124 445 116 621 m 204 520 q 578 504 489 504 l 589 504 q 597 496 593 504 l 597 488 l 589 477 q 204 493 448 479 q -56 488 -41 490 q -97 501 -97 490 l -97 507 q -86 517 -97 511 q -59 515 -68 517 q 204 520 127 520 z "},"Ñ":{"ha":473,"x_min":94,"x_max":401,"o":"m 109 937 q 94 921 96 937 l 94 451 q 109 27 94 264 q 124 12 109 12 l 140 12 q 117 513 117 209 q 122 724 117 573 l 121 747 q 117 836 121 779 l 117 851 l 123 842 l 194 597 q 387 -3 371 -3 l 401 4 q 387 613 387 377 l 387 690 q 394 921 387 767 l 378 929 q 363 913 366 929 l 363 721 q 358 635 363 689 q 359 604 358 612 q 355 521 355 533 q 371 151 355 480 l 371 127 l 363 127 q 232 567 248 479 q 109 937 124 937 m 239 1026 q 182 1042 199 1042 q 125 988 150 1042 l 114 988 q 103 1007 103 993 q 182 1069 135 1069 q 317 1015 220 1069 l 339 1015 q 374 1048 363 1015 l 372 1053 l 372 1064 q 382 1075 372 1068 l 393 1075 q 401 1067 397 1075 l 401 1064 q 355 991 401 1006 q 342 988 351 988 q 239 1026 292 988 z "},"Ò":{"ha":422,"x_min":111,"x_max":377,"o":"m 206 911 q 252 930 231 930 q 374 564 329 930 q 377 475 377 530 l 377 464 q 374 439 377 454 q 377 420 377 436 l 377 418 q 374 399 377 402 q 377 382 377 385 q 298 30 377 96 q 260 19 271 19 l 241 19 q 119 271 144 43 l 111 382 q 206 911 111 764 m 250 46 q 320 122 304 46 q 350 423 350 193 l 350 477 q 293 844 350 637 q 252 903 273 889 q 214 873 220 891 q 138 391 138 713 q 179 122 138 237 q 247 46 217 46 l 250 46 m 163 1120 q 174 1130 170 1130 l 183 1130 q 328 1053 252 1081 q 335 1039 335 1045 q 323 1025 335 1031 l 317 1025 q 174 1101 239 1050 q 163 1120 163 1109 z "},"Ó":{"ha":422,"x_min":111,"x_max":377,"o":"m 111 382 l 119 271 q 241 19 144 43 l 260 19 q 298 30 271 19 q 377 382 377 96 q 374 399 377 385 q 377 418 377 402 l 377 420 q 374 439 377 436 q 377 464 377 454 l 377 475 q 374 564 377 530 q 252 930 329 930 q 206 911 231 930 q 111 382 111 764 m 250 46 l 247 46 q 179 122 217 46 q 138 391 138 237 q 214 873 138 713 q 252 903 220 891 q 293 844 273 889 q 350 477 350 637 l 350 423 q 320 122 350 193 q 250 46 304 46 m 225 1008 q 298 1046 239 1017 q 363 1084 363 1075 q 345 1102 363 1102 l 342 1102 q 298 1084 333 1102 q 199 1021 199 1036 l 199 1020 q 215 1006 199 1008 l 218 1006 q 225 1008 222 1006 z "},"Ô":{"ha":422,"x_min":111,"x_max":377,"o":"m 241 19 l 260 19 q 298 30 271 19 q 377 382 377 96 q 374 399 377 385 q 377 418 377 402 l 377 420 q 374 439 377 436 q 377 464 377 454 l 377 475 q 374 564 377 530 q 252 930 329 930 q 206 911 231 930 q 111 382 111 764 l 119 271 q 241 19 144 43 m 214 873 q 252 903 220 891 q 293 844 273 889 q 350 477 350 637 l 350 423 q 320 122 350 193 q 250 46 304 46 l 247 46 q 179 122 217 46 q 138 391 138 237 q 214 873 138 713 m 244 1120 l 238 1120 q 171 1029 172 1053 l 171 1025 q 182 1015 174 1018 l 191 1019 q 244 1088 227 1069 l 245 1088 q 332 1031 329 1031 q 347 1039 343 1031 l 347 1050 q 244 1120 281 1103 z "},"Õ":{"ha":422,"x_min":58,"x_max":357,"o":"m 65 382 l 73 271 q 195 19 98 43 l 214 19 q 252 30 224 19 q 331 382 331 96 q 328 399 331 385 q 331 418 331 402 l 331 420 q 328 439 331 436 q 331 464 331 454 l 331 475 q 328 564 331 530 q 206 930 283 930 q 160 911 185 930 q 65 382 65 764 m 133 122 q 92 391 92 237 q 168 873 92 713 q 206 903 174 891 q 247 844 227 889 q 304 477 304 637 l 304 423 q 274 122 304 193 q 203 46 258 46 l 201 46 q 133 122 171 46 m 194 1026 q 137 1042 154 1042 q 80 988 105 1042 l 69 988 q 58 1007 58 993 q 137 1069 90 1069 q 273 1015 175 1069 l 294 1015 q 330 1048 318 1015 l 327 1053 l 327 1064 q 338 1075 327 1068 l 349 1075 q 357 1067 353 1075 l 357 1064 q 311 991 357 1006 q 297 988 306 988 q 194 1026 247 988 z "},"Ö":{"ha":422,"x_min":111,"x_max":377,"o":"m 374 564 q 252 930 329 930 q 206 911 231 930 q 111 382 111 764 l 119 271 q 241 19 144 43 l 260 19 q 298 30 271 19 q 377 382 377 96 q 374 399 377 385 q 377 418 377 402 l 377 420 q 374 439 377 436 q 377 464 377 454 l 377 475 q 374 564 377 530 m 247 46 q 179 122 217 46 q 138 391 138 237 q 214 873 138 713 q 252 903 220 891 q 293 844 273 889 q 350 477 350 637 l 350 423 q 320 122 350 193 q 250 46 304 46 l 247 46 m 294 1080 q 275 1059 275 1075 l 275 1058 q 294 1032 275 1036 l 298 1032 q 315 1050 310 1032 l 315 1053 q 296 1080 309 1080 l 294 1080 m 204 1082 q 191 1064 193 1082 l 191 1062 q 204 1044 193 1044 l 210 1044 q 231 1063 231 1048 q 210 1082 225 1082 l 204 1082 z "},"×":{"ha":557,"x_min":125,"x_max":431,"o":"m 220 673 q 239 689 220 689 q 255 583 252 689 q 407 594 356 594 l 423 594 q 431 586 427 594 l 431 575 q 423 567 431 571 l 404 567 q 258 556 349 567 l 258 553 q 271 404 258 513 l 263 399 l 252 399 q 231 551 239 399 l 228 551 q 141 537 218 551 l 133 537 q 125 545 129 537 l 125 553 q 228 578 125 568 q 220 673 225 637 z "},"Ø":{"ha":422,"x_min":20,"x_max":395,"o":"m 65 382 l 73 271 q 195 19 98 43 l 214 19 q 252 30 224 19 q 331 382 331 96 q 328 399 331 385 q 331 418 331 402 l 331 420 q 328 439 331 436 q 331 464 331 454 l 331 475 q 328 564 331 530 q 206 930 283 930 q 160 911 185 930 q 65 382 65 764 m 133 122 q 92 391 92 237 q 168 873 92 713 q 206 903 174 891 q 247 844 227 889 q 304 477 304 637 l 304 423 q 274 122 304 193 q 203 46 258 46 l 201 46 q 133 122 171 46 m 376 838 l 384 838 q 395 827 388 838 l 395 822 q 313 640 374 798 q 50 8 205 427 q 31 0 40 0 q 20 16 20 5 q 183 429 42 60 q 362 827 290 652 l 376 838 z "},"Ù":{"ha":473,"x_min":125,"x_max":351,"o":"m 307 939 l 315 939 q 332 863 327 939 q 329 857 332 857 q 332 798 332 817 l 332 711 l 329 694 q 332 692 329 692 q 329 646 329 660 l 329 635 q 351 79 351 163 q 280 0 343 0 q 182 260 207 0 q 125 947 153 492 l 136 955 l 142 955 q 155 933 155 948 l 155 920 q 215 209 180 478 q 288 27 239 27 q 323 79 323 42 q 302 616 323 185 q 304 768 304 694 l 304 833 l 302 849 l 304 854 q 296 930 302 891 l 307 939 m 158 1101 q 148 1120 148 1109 q 158 1130 155 1130 l 168 1130 q 312 1053 237 1081 q 319 1039 319 1045 q 307 1025 319 1031 l 302 1025 q 158 1101 224 1050 z "},"Ú":{"ha":473,"x_min":125,"x_max":351,"o":"m 288 27 q 323 79 323 42 q 302 616 323 185 q 304 768 304 694 l 304 833 l 302 849 l 304 854 q 296 930 302 891 l 307 939 l 315 939 q 332 863 327 939 q 329 857 332 857 q 332 798 332 817 l 332 711 l 329 694 q 332 692 329 692 q 329 646 329 660 l 329 635 q 351 79 351 163 q 280 0 343 0 q 182 260 207 0 q 125 947 153 492 l 136 955 l 142 955 q 155 933 155 948 l 155 920 q 215 209 180 478 q 288 27 239 27 m 203 1006 l 199 1006 q 183 1020 183 1008 l 183 1021 q 282 1084 183 1036 q 326 1102 317 1102 l 330 1102 q 348 1084 348 1102 q 282 1046 348 1075 q 210 1008 224 1017 q 203 1006 207 1006 z "},"Û":{"ha":473,"x_min":125,"x_max":351,"o":"m 304 833 l 302 849 l 304 854 q 296 930 302 891 l 307 939 l 315 939 q 332 863 327 939 q 329 857 332 857 q 332 798 332 817 l 332 711 l 329 694 q 332 692 329 692 q 329 646 329 660 l 329 635 q 351 79 351 163 q 280 0 343 0 q 182 260 207 0 q 125 947 153 492 l 136 955 l 142 955 q 155 933 155 948 l 155 920 q 215 209 180 478 q 288 27 239 27 q 323 79 323 42 q 302 616 323 185 q 304 768 304 694 l 304 833 m 175 1019 l 167 1015 q 155 1025 159 1018 l 155 1029 q 222 1120 157 1053 l 229 1120 q 331 1050 266 1103 l 331 1039 q 317 1031 328 1031 q 230 1088 313 1031 l 229 1088 q 175 1019 211 1069 z "},"Ü":{"ha":473,"x_min":125,"x_max":351,"o":"m 215 209 q 288 27 239 27 q 323 79 323 42 q 302 616 323 185 q 304 768 304 694 l 304 833 l 302 849 l 304 854 q 296 930 302 891 l 307 939 l 315 939 q 332 863 327 939 q 329 857 332 857 q 332 798 332 817 l 332 711 l 329 694 q 332 692 329 692 q 329 646 329 660 l 329 635 q 351 79 351 163 q 280 0 343 0 q 182 260 207 0 q 125 947 153 492 l 136 955 l 142 955 q 155 933 155 948 l 155 920 q 215 209 180 478 m 283 1032 l 278 1032 q 260 1058 260 1036 l 260 1059 q 278 1080 260 1075 l 280 1080 q 299 1053 294 1080 l 299 1050 q 283 1032 294 1032 m 189 1082 l 195 1082 q 216 1063 210 1082 q 195 1044 216 1048 l 189 1044 q 176 1062 177 1044 l 176 1064 q 189 1082 178 1082 z "},"Ý":{"ha":441,"x_min":74,"x_max":361,"o":"m 74 830 q 96 800 74 816 q 288 480 215 640 q 245 14 275 371 q 256 0 250 1 l 264 0 l 269 3 q 288 203 280 69 q 318 472 309 472 l 318 480 l 315 496 q 361 876 340 682 l 361 879 q 351 890 355 890 l 345 890 l 337 884 q 294 534 323 793 l 291 534 q 112 819 220 685 q 96 846 104 843 l 85 846 q 74 836 74 840 l 74 830 m 163 1021 l 163 1020 q 179 1006 163 1008 l 182 1006 q 189 1008 186 1006 q 262 1046 203 1017 q 328 1084 328 1075 q 309 1102 328 1102 l 306 1102 q 262 1084 297 1102 q 163 1021 163 1036 z "},"Þ":{"ha":574,"x_min":70,"x_max":482,"o":"m 83 968 l 92 968 q 124 739 116 968 q 132 737 130 737 q 409 649 300 737 q 482 506 482 562 q 439 366 482 448 q 284 254 355 275 q 154 201 242 232 l 154 199 q 162 9 162 31 q 149 -8 162 -2 l 138 -8 q 127 2 127 -4 q 116 191 127 76 q 97 201 105 191 l 97 208 q 116 220 97 212 q 92 711 106 302 q 86 722 92 722 l 89 734 q 70 949 89 833 l 70 951 q 83 968 70 962 m 127 707 q 149 233 140 370 l 149 231 q 366 334 279 271 q 436 443 421 385 q 447 506 447 493 q 366 644 447 564 q 211 701 276 701 q 143 709 199 707 l 127 707 z "},"ß":{"ha":606,"x_min":52,"x_max":508,"o":"m 286 1139 q 437 970 395 1139 q 446 912 446 935 q 380 734 446 850 q 348 681 348 688 l 348 677 q 440 551 348 647 q 508 371 508 448 l 508 366 q 443 89 508 260 q 342 -33 407 16 q 74 -114 258 -73 l 68 -114 q 52 -90 52 -107 q 310 -15 183 -63 q 429 148 382 20 q 473 373 473 292 q 340 615 473 479 q 313 675 313 654 l 313 684 q 375 791 313 694 q 410 921 410 875 q 283 1111 384 1111 l 275 1111 q 188 987 203 1111 q 185 939 185 962 l 185 880 q 210 650 185 859 q 231 239 231 340 q 199 157 231 168 l 196 161 q 204 221 204 204 q 150 866 174 699 l 150 943 q 248 1135 150 1105 q 286 1139 268 1139 z "},"à":{"ha":501,"x_min":88,"x_max":382,"o":"m 88 30 q 109 374 109 316 q 106 450 106 412 q 139 863 108 645 q 178 926 152 926 l 181 926 q 247 830 220 908 q 358 234 322 597 q 382 27 382 116 q 363 18 378 18 q 331 234 353 39 q 304 414 325 255 l 283 416 q 136 387 136 403 l 136 281 l 118 30 q 124 12 124 20 q 112 0 124 7 q 88 30 88 0 m 136 431 l 136 422 q 301 446 222 446 l 301 450 q 211 842 301 532 q 178 890 191 884 q 139 497 139 738 q 136 431 136 497 m 155 1130 l 165 1130 q 309 1053 234 1081 q 316 1039 316 1045 q 304 1025 316 1031 l 299 1025 q 155 1101 220 1050 q 145 1120 145 1109 q 155 1130 151 1130 z "},"á":{"ha":501,"x_min":88,"x_max":382,"o":"m 88 30 q 109 374 109 316 q 106 450 106 412 q 139 863 108 645 q 178 926 152 926 l 181 926 q 247 830 220 908 q 358 234 322 597 q 382 27 382 116 q 363 18 378 18 q 331 234 353 39 q 304 414 325 255 l 283 416 q 136 387 136 403 l 136 281 l 118 30 q 124 12 124 20 q 112 0 124 7 q 88 30 88 0 m 139 497 q 136 431 136 497 l 136 422 q 301 446 222 446 l 301 450 q 211 842 301 532 q 178 890 191 884 q 139 497 139 738 m 248 1084 q 293 1102 283 1102 l 296 1102 q 314 1084 314 1102 q 248 1046 314 1075 q 176 1008 191 1017 q 169 1006 173 1006 l 165 1006 q 149 1020 149 1008 l 149 1021 q 248 1084 149 1036 z "},"â":{"ha":501,"x_min":88,"x_max":382,"o":"m 136 387 l 136 281 l 118 30 q 124 12 124 20 q 112 0 124 7 q 88 30 88 0 q 109 374 109 316 q 106 450 106 412 q 139 863 108 645 q 178 926 152 926 l 181 926 q 247 830 220 908 q 358 234 322 597 q 382 27 382 116 q 363 18 378 18 q 331 234 353 39 q 304 414 325 255 l 283 416 q 136 387 136 403 m 136 422 q 301 446 222 446 l 301 450 q 211 842 301 532 q 178 890 191 884 q 139 497 139 738 q 136 431 136 497 l 136 422 m 92 1025 l 92 1029 q 159 1120 94 1053 l 165 1120 q 267 1050 202 1103 l 267 1039 q 253 1031 264 1031 q 167 1088 250 1031 l 165 1088 q 111 1019 147 1069 l 104 1015 q 92 1025 96 1018 z "},"ã":{"ha":501,"x_min":86,"x_max":385,"o":"m 140 863 q 179 926 153 926 l 182 926 q 248 830 220 908 q 359 234 323 597 q 382 27 382 116 q 364 18 379 18 q 332 234 353 39 q 304 414 326 255 l 283 416 q 137 387 137 403 l 137 281 l 119 30 q 125 12 125 20 q 113 0 125 7 q 89 30 89 0 q 110 374 110 316 q 107 450 107 412 q 140 863 109 645 m 212 842 q 179 890 192 884 q 140 497 140 738 q 137 431 137 497 l 137 422 q 302 446 222 446 l 302 450 q 212 842 302 532 m 357 1048 l 355 1053 l 355 1064 q 366 1075 355 1068 l 376 1075 q 385 1067 380 1075 l 385 1064 q 338 991 385 1006 q 325 988 334 988 q 222 1026 275 988 q 165 1042 182 1042 q 108 988 133 1042 l 97 988 q 86 1007 86 993 q 165 1069 118 1069 q 300 1015 203 1069 l 322 1015 q 357 1048 346 1015 z "},"ä":{"ha":501,"x_min":68,"x_max":362,"o":"m 117 281 l 98 30 q 104 12 104 20 q 92 0 104 7 q 68 30 68 0 q 90 374 90 316 q 87 450 87 412 q 119 863 88 645 q 159 926 132 926 l 161 926 q 227 830 200 908 q 338 234 302 597 q 362 27 362 116 q 344 18 359 18 q 311 234 333 39 q 284 414 305 255 l 263 416 q 117 387 117 403 l 117 281 m 159 890 q 119 497 119 738 q 117 431 117 497 l 117 422 q 281 446 202 446 l 281 450 q 191 842 281 532 q 159 890 172 884 m 230 1032 l 224 1032 q 207 1058 207 1036 l 207 1059 q 224 1080 207 1075 l 227 1080 q 246 1053 241 1080 l 246 1050 q 230 1032 241 1032 m 123 1064 q 136 1082 125 1082 l 142 1082 q 163 1063 156 1082 q 142 1044 163 1048 l 136 1044 q 123 1062 123 1044 l 123 1064 z "},"å":{"ha":501,"x_min":88,"x_max":382,"o":"m 181 926 q 247 830 220 908 q 358 234 322 597 q 382 27 382 116 q 363 18 378 18 q 331 234 353 39 q 304 414 325 255 l 283 416 q 136 387 136 403 l 136 281 l 118 30 q 124 12 124 20 q 112 0 124 7 q 88 30 88 0 q 109 374 109 316 q 106 450 106 412 q 139 863 108 645 q 178 926 152 926 l 181 926 m 136 431 l 136 422 q 301 446 222 446 l 301 450 q 211 842 301 532 q 178 890 191 884 q 139 497 139 738 q 136 431 136 497 m 144 1084 q 137 1112 137 1097 q 181 1154 137 1144 q 200 1158 195 1158 q 238 1106 229 1158 l 238 1097 q 201 1055 231 1055 q 194 1054 201 1054 q 144 1084 163 1054 m 194 1080 q 212 1099 212 1082 l 212 1107 q 198 1133 210 1120 l 197 1133 q 163 1111 163 1126 l 163 1109 q 194 1080 163 1088 z "},"æ":{"ha":584,"x_min":88,"x_max":518,"o":"m 486 35 l 491 38 l 502 38 q 513 27 506 38 l 513 22 q 502 11 513 18 l 475 11 l 391 0 q 382 3 385 3 l 377 0 q 347 33 349 0 l 347 79 q 347 100 347 87 q 331 234 340 151 q 304 414 325 255 l 283 416 q 136 387 136 403 l 136 281 l 118 30 q 124 12 124 20 q 112 0 124 7 q 88 30 88 0 q 109 374 109 316 q 106 450 106 412 q 139 863 108 645 q 178 926 152 926 l 181 926 q 247 830 220 908 q 354 271 318 609 q 382 760 363 446 l 382 770 q 366 933 382 897 q 377 944 366 937 q 439 933 405 933 q 513 936 494 936 l 518 928 l 518 917 q 510 909 518 913 q 434 906 495 909 l 401 909 q 410 760 410 857 q 393 480 393 523 q 507 464 393 473 l 515 453 l 515 448 q 502 437 514 442 q 391 445 459 445 q 375 130 378 236 q 382 27 382 75 l 382 27 l 486 38 l 486 35 m 136 431 l 136 422 q 301 446 222 446 l 301 450 q 211 842 301 532 q 178 890 191 884 q 139 497 139 738 q 136 431 136 497 z "},"ç":{"ha":431,"x_min":88,"x_max":378,"o":"m 178 901 q 229 920 218 920 l 248 920 q 297 884 297 911 q 286 873 297 880 l 275 873 q 237 895 258 895 q 170 852 170 871 q 115 570 115 749 l 115 524 q 148 233 115 403 q 202 65 168 109 q 275 27 244 28 q 362 87 315 27 l 370 87 q 378 79 374 87 l 378 73 q 319 11 378 49 q 273 0 294 0 l 270 0 q 254 3 262 1 q 254 -25 254 -13 l 254 -37 q 257 -41 254 -41 l 292 -41 q 337 -77 327 -41 l 337 -84 q 271 -164 337 -141 l 260 -165 q 231 -155 231 -163 l 231 -152 q 247 -143 232 -148 q 290 -112 255 -134 q 306 -81 306 -89 q 294 -70 306 -70 l 275 -70 q 268 -72 271 -70 q 222 -26 222 -72 q 227 14 222 1 q 186 43 207 25 q 102 353 138 81 q 88 545 88 411 l 88 562 q 178 901 93 836 z "},"è":{"ha":390,"x_min":102,"x_max":278,"o":"m 107 79 q 142 760 107 193 l 142 770 q 126 933 142 897 q 137 944 126 937 q 199 933 165 933 q 273 936 254 936 l 278 928 l 278 917 q 270 909 278 913 q 194 906 255 909 l 161 909 q 170 760 170 857 q 153 480 153 523 q 267 464 153 473 l 275 453 l 275 448 q 262 437 274 442 q 151 445 219 445 q 134 81 134 180 l 134 33 q 140 27 135 27 l 142 27 l 245 38 l 245 35 l 251 38 l 262 38 q 273 27 266 38 l 273 22 q 262 11 273 18 l 235 11 l 151 0 q 142 3 145 3 l 137 0 q 107 33 109 0 l 107 79 m 256 1025 q 113 1101 178 1050 q 102 1120 102 1109 q 113 1130 109 1130 l 122 1130 q 267 1053 191 1081 q 274 1039 274 1045 q 262 1025 274 1031 l 256 1025 z "},"é":{"ha":390,"x_min":102,"x_max":298,"o":"m 102 79 q 138 760 102 193 l 138 770 q 121 933 138 897 q 132 944 121 937 q 195 933 160 933 q 268 936 249 936 l 273 928 l 273 917 q 265 909 273 913 q 189 906 250 909 l 157 909 q 165 760 165 857 q 149 480 149 523 q 262 464 149 473 l 271 453 l 271 448 q 257 437 269 442 q 146 445 214 445 q 130 81 130 180 l 130 33 q 135 27 130 27 l 138 27 l 241 38 l 241 35 l 246 38 l 257 38 q 268 27 261 38 l 268 22 q 257 11 268 18 l 230 11 l 146 0 q 138 3 140 3 l 132 0 q 102 33 104 0 l 102 79 m 149 1006 q 133 1020 133 1008 l 133 1021 q 232 1084 133 1036 q 276 1102 267 1102 l 279 1102 q 298 1084 298 1102 q 232 1046 298 1075 q 159 1008 174 1017 q 153 1006 157 1006 l 149 1006 z "},"ê":{"ha":390,"x_min":100,"x_max":278,"o":"m 100 33 q 130 0 102 0 l 136 3 q 144 0 138 3 l 228 11 l 255 11 q 266 22 266 18 l 266 27 q 255 38 259 38 l 244 38 l 239 35 l 239 38 l 136 27 l 133 27 q 127 33 128 27 l 127 81 q 144 445 127 180 q 255 437 212 445 q 269 448 267 442 l 269 453 l 260 464 q 146 480 146 473 q 163 760 146 523 q 155 909 163 857 l 187 906 q 263 909 248 909 q 271 917 271 913 l 271 928 l 266 936 q 193 933 247 936 q 130 944 158 933 q 119 933 119 937 q 136 770 136 897 l 136 760 q 100 79 100 193 l 100 33 m 278 1050 q 176 1120 214 1103 l 170 1120 q 103 1029 104 1053 l 103 1025 q 115 1015 106 1018 l 123 1019 q 176 1088 159 1069 l 178 1088 q 264 1031 260 1031 q 278 1039 275 1031 l 278 1050 z "},"ë":{"ha":390,"x_min":98,"x_max":269,"o":"m 134 27 l 237 38 l 237 35 l 242 38 l 253 38 q 264 27 257 38 l 264 22 q 253 11 264 18 l 226 11 l 142 0 q 134 3 136 3 l 128 0 q 98 33 100 0 l 98 79 q 134 760 98 193 l 134 770 q 117 933 134 897 q 128 944 117 937 q 191 933 156 933 q 264 936 245 936 l 269 928 l 269 917 q 261 909 269 913 q 185 906 246 909 l 153 909 q 161 760 161 857 q 144 480 144 523 q 258 464 144 473 l 267 453 l 267 448 q 253 437 265 442 q 142 445 210 445 q 125 81 125 180 l 125 33 q 131 27 126 27 l 134 27 m 224 1080 l 226 1080 q 245 1053 240 1080 l 245 1050 q 229 1032 240 1032 l 224 1032 q 206 1058 206 1036 l 206 1059 q 224 1080 206 1075 m 135 1044 q 121 1062 123 1044 l 121 1064 q 135 1082 124 1082 l 141 1082 q 162 1063 155 1082 q 141 1044 162 1048 l 135 1044 z "},"ì":{"ha":288,"x_min":98,"x_max":270,"o":"m 167 73 q 183 722 167 544 l 183 798 q 175 911 183 861 q 186 922 175 916 l 191 922 q 210 779 210 922 l 210 743 q 194 469 210 690 q 197 448 194 458 q 194 222 194 306 l 194 46 q 199 19 194 41 q 189 0 196 0 l 178 0 q 167 73 167 0 m 252 1025 q 109 1101 174 1050 q 98 1120 98 1109 q 109 1130 105 1130 l 118 1130 q 262 1053 187 1081 q 270 1039 270 1045 q 258 1025 270 1031 l 252 1025 z "},"í":{"ha":288,"x_min":92,"x_max":257,"o":"m 125 73 q 142 722 125 544 l 142 798 q 134 911 142 861 q 144 922 134 916 l 150 922 q 169 779 169 922 l 169 743 q 153 469 169 690 q 155 448 153 458 q 153 222 153 306 l 153 46 q 158 19 153 41 q 147 0 155 0 l 136 0 q 125 73 125 0 m 92 1021 q 191 1084 92 1036 q 235 1102 227 1102 l 239 1102 q 257 1084 257 1102 q 191 1046 257 1075 q 119 1008 133 1017 q 112 1006 116 1006 l 109 1006 q 92 1020 92 1008 l 92 1021 z "},"î":{"ha":288,"x_min":60,"x_max":235,"o":"m 137 722 q 121 73 121 544 q 132 0 121 0 l 142 0 q 153 19 150 0 q 148 46 148 41 l 148 222 q 151 448 148 306 q 148 469 148 458 q 164 743 164 690 l 164 779 q 145 922 164 922 l 140 922 q 129 911 129 916 q 137 798 137 861 l 137 722 m 60 1029 l 60 1025 q 71 1015 63 1018 l 79 1019 q 133 1088 115 1069 l 134 1088 q 221 1031 218 1031 q 235 1039 232 1031 l 235 1050 q 133 1120 170 1103 l 127 1120 q 60 1029 61 1053 z "},"ï":{"ha":288,"x_min":58,"x_max":181,"o":"m 115 722 l 115 798 q 106 911 115 861 q 117 922 106 916 l 123 922 q 142 779 142 922 l 142 743 q 125 469 142 690 q 128 448 125 458 q 125 222 125 306 l 125 46 q 131 19 125 41 q 120 0 127 0 l 109 0 q 98 73 98 0 q 115 722 98 544 m 160 1080 l 162 1080 q 181 1053 176 1080 l 181 1050 q 165 1032 176 1032 l 160 1032 q 142 1058 142 1036 l 142 1059 q 160 1080 142 1075 m 58 1062 l 58 1064 q 71 1082 60 1082 l 77 1082 q 98 1063 92 1082 q 77 1044 98 1048 l 71 1044 q 58 1062 59 1044 z "},"ð":{"ha":415,"x_min":-97,"x_max":597,"o":"m 265 195 q 208 52 265 165 q 165 0 173 0 q 146 11 146 4 l 146 22 q 159 60 159 43 q 154 76 154 71 q 159 84 157 84 q 157 141 157 119 q 150 492 157 342 q -56 488 -43 490 q -97 501 -97 490 l -97 507 q -86 517 -97 511 q -59 515 -68 517 q 149 519 72 519 q 83 925 133 850 l 83 930 q 94 941 83 935 l 111 941 q 176 911 123 928 q 284 776 253 863 q 311 632 311 685 l 311 551 q 314 529 311 540 q 313 514 313 522 q 578 504 507 504 l 589 504 q 597 496 593 504 l 597 488 l 589 477 q 311 488 481 479 q 265 195 293 256 m 238 808 q 127 901 208 871 l 127 898 q 176 520 163 788 q 204 520 191 520 q 286 515 248 517 q 287 526 287 521 q 238 808 287 739 m 177 493 q 184 144 184 342 l 184 133 q 186 73 186 79 q 265 307 233 142 q 284 489 277 383 q 204 493 245 491 q 177 493 191 493 z "},"ñ":{"ha":473,"x_min":94,"x_max":392,"o":"m 141 0 l 130 8 l 133 33 q 111 461 117 210 q 122 787 122 731 q 119 849 122 800 q 122 857 122 854 q 119 879 119 868 q 133 922 119 922 q 174 833 158 922 q 315 298 266 528 q 331 233 331 239 l 334 233 q 271 743 320 364 q 263 849 266 781 q 266 917 266 901 l 277 925 l 285 925 l 296 914 q 290 846 290 884 q 350 336 290 777 l 374 60 q 355 46 370 46 q 304 239 342 46 q 209 621 279 327 q 149 827 168 738 l 146 827 l 149 795 q 138 464 149 741 q 160 16 144 215 l 160 11 q 141 0 156 0 m 308 1015 l 330 1015 q 365 1048 353 1015 l 362 1053 l 362 1064 q 373 1075 362 1068 l 384 1075 q 392 1067 388 1075 l 392 1064 q 346 991 392 1006 q 332 988 341 988 q 229 1026 282 988 q 172 1042 189 1042 q 115 988 140 1042 l 104 988 q 94 1007 94 993 q 172 1069 125 1069 q 308 1015 210 1069 z "},"ò":{"ha":422,"x_min":111,"x_max":304,"o":"m 163 838 q 160 849 160 843 l 206 887 l 228 887 q 277 798 248 887 q 304 396 304 597 q 266 24 304 83 q 228 0 245 0 l 217 0 q 122 236 143 0 q 111 494 117 326 l 111 545 q 163 838 111 711 m 157 163 q 222 27 180 27 q 277 391 277 27 l 277 396 q 247 806 277 629 q 217 860 225 860 l 214 860 q 141 618 165 829 l 136 540 q 157 163 144 264 m 117 1120 q 127 1130 124 1130 l 137 1130 q 281 1053 206 1081 q 289 1039 289 1045 q 277 1025 289 1031 l 271 1025 q 127 1101 193 1050 q 117 1120 117 1109 z "},"ó":{"ha":422,"x_min":111,"x_max":317,"o":"m 111 545 q 163 838 111 711 q 160 849 160 843 l 206 887 l 228 887 q 277 798 248 887 q 304 396 304 597 q 266 24 304 83 q 228 0 245 0 l 217 0 q 122 236 143 0 q 111 494 117 326 l 111 545 m 157 163 q 222 27 180 27 q 277 391 277 27 l 277 396 q 247 806 277 629 q 217 860 225 860 l 214 860 q 141 618 165 829 l 136 540 q 157 163 144 264 m 153 1020 l 153 1021 q 252 1084 153 1036 q 296 1102 287 1102 l 299 1102 q 317 1084 317 1102 q 252 1046 317 1075 q 179 1008 193 1017 q 172 1006 176 1006 l 169 1006 q 153 1020 153 1008 z "},"ô":{"ha":422,"x_min":111,"x_max":304,"o":"m 111 494 l 111 545 q 163 838 111 711 q 160 849 160 843 l 206 887 l 228 887 q 277 798 248 887 q 304 396 304 597 q 266 24 304 83 q 228 0 245 0 l 217 0 q 122 236 143 0 q 111 494 117 326 m 136 540 q 157 163 144 264 q 222 27 180 27 q 277 391 277 27 l 277 396 q 247 806 277 629 q 217 860 225 860 l 214 860 q 141 618 165 829 l 136 540 m 191 1120 l 197 1120 q 300 1050 235 1103 l 300 1039 q 286 1031 297 1031 q 199 1088 282 1031 l 197 1088 q 144 1019 180 1069 l 136 1015 q 125 1025 128 1018 l 125 1029 q 191 1120 126 1053 z "},"õ":{"ha":422,"x_min":58,"x_max":357,"o":"m 266 24 q 228 0 245 0 l 217 0 q 122 236 143 0 q 111 494 117 326 l 111 545 q 163 838 111 711 q 160 849 160 843 l 206 887 l 228 887 q 277 798 248 887 q 304 396 304 597 q 266 24 304 83 m 214 860 q 141 618 165 829 l 136 540 q 157 163 144 264 q 222 27 180 27 q 277 391 277 27 l 277 396 q 247 806 277 629 q 217 860 225 860 l 214 860 m 137 1042 q 80 988 105 1042 l 69 988 q 58 1007 58 993 q 137 1069 90 1069 q 273 1015 175 1069 l 294 1015 q 330 1048 318 1015 l 327 1053 l 327 1064 q 338 1075 327 1068 l 349 1075 q 357 1067 353 1075 l 357 1064 q 311 991 357 1006 q 297 988 306 988 q 194 1026 247 988 q 137 1042 154 1042 z "},"ö":{"ha":422,"x_min":111,"x_max":304,"o":"m 160 849 l 206 887 l 228 887 q 277 798 248 887 q 304 396 304 597 q 266 24 304 83 q 228 0 245 0 l 217 0 q 122 236 143 0 q 111 494 117 326 l 111 545 q 163 838 111 711 q 160 849 160 843 m 277 396 q 247 806 277 629 q 217 860 225 860 l 214 860 q 141 618 165 829 l 136 540 q 157 163 144 264 q 222 27 180 27 q 277 391 277 27 l 277 396 m 269 1050 q 253 1032 264 1032 l 248 1032 q 230 1058 230 1036 l 230 1059 q 248 1080 230 1075 l 250 1080 q 269 1053 264 1080 l 269 1050 m 159 1044 q 145 1062 146 1044 l 145 1064 q 159 1082 148 1082 l 165 1082 q 186 1063 179 1082 q 165 1044 186 1048 l 159 1044 z "},"÷":{"ha":557,"x_min":125,"x_max":431,"o":"m 220 673 q 239 689 220 689 q 255 583 252 689 q 407 594 356 594 l 423 594 q 431 586 427 594 l 431 575 q 423 567 431 571 l 404 567 q 258 556 349 567 l 258 553 q 271 404 258 513 l 263 399 l 252 399 q 231 551 239 399 l 228 551 q 141 537 218 551 l 133 537 q 125 545 129 537 l 125 553 q 228 578 125 568 q 220 673 225 637 z "},"ø":{"ha":422,"x_min":20,"x_max":395,"o":"m 228 0 l 217 0 q 125 206 148 0 q 50 8 89 113 q 31 0 40 0 q 20 16 20 5 q 121 265 37 49 q 111 494 116 352 l 111 545 q 163 838 111 711 q 160 849 160 843 l 206 887 l 228 887 q 277 798 248 887 q 292 663 286 730 q 362 827 330 750 l 376 838 l 384 838 q 395 827 388 838 l 395 822 q 313 640 374 798 q 296 606 305 624 q 304 396 304 501 q 266 24 304 83 q 228 0 245 0 m 273 557 q 148 264 216 435 q 157 163 153 201 q 222 27 180 27 q 277 391 277 27 l 277 396 q 273 557 277 480 m 217 860 l 214 860 q 141 618 165 829 l 136 540 q 144 328 140 416 q 183 429 163 374 q 269 613 229 526 q 247 806 262 717 q 217 860 225 860 z "},"ù":{"ha":473,"x_min":125,"x_max":351,"o":"m 307 939 l 315 939 q 332 863 327 939 q 329 857 332 857 q 332 798 332 817 l 332 711 l 329 694 q 332 692 329 692 q 329 646 329 660 l 329 635 q 351 79 351 163 q 280 0 343 0 q 182 260 207 0 q 125 947 153 492 l 136 955 l 142 955 q 155 933 155 948 l 155 920 q 215 209 180 478 q 288 27 239 27 q 323 79 323 42 q 302 616 323 185 q 304 768 304 694 l 304 833 l 302 849 l 304 854 q 296 930 302 891 l 307 939 m 148 1120 q 158 1130 155 1130 l 168 1130 q 312 1053 237 1081 q 319 1039 319 1045 q 307 1025 319 1031 l 302 1025 q 158 1101 224 1050 q 148 1120 148 1109 z "},"ú":{"ha":473,"x_min":125,"x_max":351,"o":"m 288 27 q 323 79 323 42 q 302 616 323 185 q 304 768 304 694 l 304 833 l 302 849 l 304 854 q 296 930 302 891 l 307 939 l 315 939 q 332 863 327 939 q 329 857 332 857 q 332 798 332 817 l 332 711 l 329 694 q 332 692 329 692 q 329 646 329 660 l 329 635 q 351 79 351 163 q 280 0 343 0 q 182 260 207 0 q 125 947 153 492 l 136 955 l 142 955 q 155 933 155 948 l 155 920 q 215 209 180 478 q 288 27 239 27 m 199 1006 q 183 1020 183 1008 l 183 1021 q 282 1084 183 1036 q 326 1102 317 1102 l 330 1102 q 348 1084 348 1102 q 282 1046 348 1075 q 210 1008 224 1017 q 203 1006 207 1006 l 199 1006 z "},"û":{"ha":473,"x_min":125,"x_max":351,"o":"m 304 833 l 302 849 l 304 854 q 296 930 302 891 l 307 939 l 315 939 q 332 863 327 939 q 329 857 332 857 q 332 798 332 817 l 332 711 l 329 694 q 332 692 329 692 q 329 646 329 660 l 329 635 q 351 79 351 163 q 280 0 343 0 q 182 260 207 0 q 125 947 153 492 l 136 955 l 142 955 q 155 933 155 948 l 155 920 q 215 209 180 478 q 288 27 239 27 q 323 79 323 42 q 302 616 323 185 q 304 768 304 694 l 304 833 m 175 1019 l 167 1015 q 155 1025 159 1018 l 155 1029 q 222 1120 157 1053 l 228 1120 q 330 1050 266 1103 l 330 1039 q 317 1031 328 1031 q 230 1088 313 1031 l 228 1088 q 175 1019 211 1069 z "},"ü":{"ha":473,"x_min":125,"x_max":351,"o":"m 215 209 q 288 27 239 27 q 323 79 323 42 q 302 616 323 185 q 304 768 304 694 l 304 833 l 302 849 l 304 854 q 296 930 302 891 l 307 939 l 315 939 q 332 863 327 939 q 329 857 332 857 q 332 798 332 817 l 332 711 l 329 694 q 332 692 329 692 q 329 646 329 660 l 329 635 q 351 79 351 163 q 280 0 343 0 q 182 260 207 0 q 125 947 153 492 l 136 955 l 142 955 q 155 933 155 948 l 155 920 q 215 209 180 478 m 283 1032 l 278 1032 q 260 1058 260 1036 l 260 1059 q 278 1080 260 1075 l 280 1080 q 299 1053 294 1080 l 299 1050 q 283 1032 294 1032 m 189 1082 l 195 1082 q 216 1063 210 1082 q 195 1044 216 1048 l 189 1044 q 176 1062 177 1044 l 176 1064 q 189 1082 178 1082 z "},"ý":{"ha":441,"x_min":74,"x_max":361,"o":"m 74 830 l 74 836 q 85 846 74 840 l 96 846 q 112 819 104 843 q 291 534 220 685 l 294 534 q 337 884 323 793 l 345 890 l 351 890 q 361 879 355 890 l 361 876 q 315 496 340 682 l 318 480 l 318 472 q 288 203 309 472 q 269 3 280 69 l 264 0 l 256 0 q 245 14 250 1 q 288 480 275 371 q 96 800 215 640 q 74 830 74 816 m 262 1084 q 306 1102 297 1102 l 309 1102 q 328 1084 328 1102 q 262 1046 328 1075 q 189 1008 203 1017 q 182 1006 186 1006 l 179 1006 q 163 1020 163 1008 l 163 1021 q 262 1084 163 1036 z "},"þ":{"ha":574,"x_min":70,"x_max":482,"o":"m 83 968 l 92 968 q 124 739 116 968 q 132 737 130 737 q 409 649 300 737 q 482 506 482 562 q 439 366 482 448 q 284 254 355 275 q 154 201 242 232 l 154 199 q 162 9 162 31 q 149 -8 162 -2 l 138 -8 q 127 2 127 -4 q 116 191 127 76 q 97 201 105 191 l 97 208 q 116 220 97 212 q 92 711 106 302 q 86 722 92 722 l 89 734 q 70 949 89 833 l 70 951 q 83 968 70 962 m 127 707 q 149 233 140 370 l 149 231 q 366 334 279 271 q 436 443 421 385 q 447 506 447 493 q 366 644 447 564 q 211 701 276 701 q 143 709 199 707 l 127 707 z "},"ÿ":{"ha":441,"x_min":74,"x_max":361,"o":"m 288 480 q 96 800 215 640 q 74 830 74 816 l 74 836 q 85 846 74 840 l 96 846 q 112 819 104 843 q 291 534 220 685 l 294 534 q 337 884 323 793 l 345 890 l 351 890 q 361 879 355 890 l 361 876 q 315 496 340 682 l 318 480 l 318 472 q 288 203 309 472 q 269 3 280 69 l 264 0 l 256 0 q 245 14 250 1 q 288 480 275 371 m 267 1005 q 249 1031 249 1009 l 249 1032 q 267 1053 249 1048 l 269 1053 q 288 1025 283 1053 l 288 1023 q 272 1005 283 1005 l 267 1005 m 184 1017 l 178 1017 q 165 1035 166 1017 l 165 1037 q 178 1055 167 1055 l 184 1055 q 205 1036 199 1055 q 184 1017 205 1021 z "},"˜":{"ha":694,"x_min":191,"x_max":489,"o":"m 326 748 q 269 764 286 764 q 212 710 237 764 l 201 710 q 191 729 191 715 q 269 791 222 791 q 405 737 307 791 l 427 737 q 462 770 450 737 l 459 775 l 459 786 q 470 797 459 790 l 481 797 q 489 789 485 797 l 489 786 q 443 713 489 728 q 429 710 438 710 q 326 748 379 710 z "},"‘":{"ha":235,"x_min":74,"x_max":147,"o":"m 120 922 q 74 748 98 829 q 85 737 81 737 l 90 737 l 96 740 q 147 916 117 784 q 136 927 140 927 l 128 927 l 120 922 z "},"’":{"ha":235,"x_min":74,"x_max":147,"o":"m 120 922 q 74 748 98 829 q 85 737 81 737 l 90 737 l 96 740 q 147 916 117 784 q 136 927 140 927 l 128 927 l 120 922 z "},"“":{"ha":456,"x_min":144,"x_max":285,"o":"m 244 1024 q 252 997 250 997 q 266 826 252 826 q 285 842 285 826 q 282 859 282 857 l 282 883 q 260 1035 282 1035 l 255 1035 q 244 1024 244 1028 m 160 829 q 187 1002 180 829 q 165 1024 187 1021 q 152 1013 157 1024 l 152 1008 l 160 994 q 144 837 155 888 q 152 829 148 829 l 160 829 z "},"”":{"ha":456,"x_min":144,"x_max":285,"o":"m 244 1024 q 252 997 250 997 q 266 826 252 826 q 285 842 285 826 q 282 859 282 857 l 282 883 q 260 1035 282 1035 l 255 1035 q 244 1024 244 1028 m 160 829 q 187 1002 180 829 q 165 1024 187 1021 q 152 1013 157 1024 l 152 1008 l 160 994 q 144 837 155 888 q 152 829 148 829 l 160 829 z "},"₤":{"ha":571,"x_min":83,"x_max":526,"o":"m 108 498 l 113 498 q 162 471 133 475 l 162 474 q 127 726 127 640 q 208 886 127 846 l 219 886 q 260 873 260 886 l 260 867 q 249 857 260 863 q 214 859 248 857 q 154 729 154 821 l 154 713 q 192 466 154 641 q 330 444 296 452 l 336 436 l 336 431 q 322 420 330 420 q 192 436 279 428 l 192 409 q 151 257 192 366 q 111 97 111 123 l 111 86 q 178 102 135 102 q 477 64 205 102 q 501 86 501 68 l 507 89 l 517 89 q 526 81 522 89 q 485 40 522 40 l 463 40 l 184 75 l 173 75 q 113 40 123 75 l 108 37 l 97 37 q 83 89 83 37 l 83 92 q 165 387 83 144 l 165 444 q 94 477 94 458 q 108 498 94 491 z "},"€":{"ha":506,"x_min":51,"x_max":463,"o":"m 62 557 l 67 557 q 140 538 67 545 q 216 810 140 641 q 355 926 282 926 q 390 905 390 926 q 376 891 390 897 l 360 899 l 357 899 q 181 633 256 899 q 168 538 168 552 l 352 538 q 360 530 356 538 l 360 522 q 336 511 357 511 l 170 511 q 165 506 165 511 l 165 471 q 170 465 165 465 q 352 463 307 463 l 371 465 q 385 454 383 460 l 385 446 q 371 435 379 435 q 165 438 332 435 l 165 435 q 205 216 165 355 q 309 129 271 138 q 458 80 349 109 l 463 72 l 463 64 q 452 56 463 56 q 222 153 283 91 q 159 278 172 205 q 135 441 149 328 q 51 471 51 441 q 62 481 51 475 q 135 468 93 468 l 138 468 l 138 484 l 140 511 q 54 536 54 517 q 51 549 51 541 l 62 557 z "},"№":{"ha":1540,"x_min":0,"x_max":0,"o":""},"™":{"ha":631,"x_min":153,"x_max":478,"o":"m 348 880 q 361 901 348 893 l 370 901 q 394 847 382 901 l 399 847 q 427 904 399 880 l 437 904 q 478 638 469 904 l 473 635 l 462 635 q 448 663 448 643 q 432 861 448 781 l 429 861 q 416 733 416 808 l 416 722 q 408 714 416 718 l 399 714 q 375 820 385 714 q 370 839 372 820 l 367 839 q 356 654 359 767 q 337 646 346 646 l 326 654 q 348 880 335 811 m 201 844 l 199 844 l 172 836 l 163 836 q 153 847 159 836 l 153 852 q 299 885 159 874 q 313 866 313 881 q 302 855 313 862 l 288 858 q 231 850 237 852 q 258 646 248 821 q 250 635 254 635 l 237 635 q 229 644 235 635 l 231 657 q 201 842 218 842 l 201 844 z "},"":{"ha":728,"x_min":0,"x_max":0,"o":""},"":{"ha":733,"x_min":0,"x_max":0,"o":""},"₱":{"ha":622,"x_min":79,"x_max":505,"o":"m 393 477 q 285 345 393 436 q 222 307 275 345 q 233 43 233 166 l 233 41 q 236 16 233 31 q 225 0 231 0 l 217 0 q 206 24 206 3 l 206 52 q 193 315 206 226 q 195 326 193 321 q 190 494 193 358 q 149 507 190 504 q 79 540 87 526 l 79 551 q 98 562 83 562 q 160 534 115 542 q 187 529 172 529 l 187 605 q 90 635 90 616 l 90 637 q 103 665 90 659 l 109 665 q 122 643 115 665 q 187 632 144 637 l 187 776 l 184 803 l 195 811 q 353 743 312 811 q 410 624 389 708 q 505 605 505 618 l 505 600 q 491 583 501 589 l 477 583 q 437 594 468 594 l 410 594 l 410 583 q 401 505 410 546 q 458 499 420 499 l 464 491 l 464 483 q 450 472 463 477 l 393 477 m 214 632 q 255 629 241 629 l 293 629 q 380 627 321 629 q 328 732 380 660 q 217 784 284 784 q 212 754 214 779 q 214 648 214 694 l 214 632 m 214 524 q 374 510 312 510 q 382 583 382 542 l 382 600 l 214 605 l 214 524 m 217 488 q 220 339 220 390 q 317 410 284 375 q 366 480 358 450 q 214 496 324 483 q 217 488 214 494 z "},"♥":{"ha":457,"x_min":97,"x_max":368,"o":"m 260 88 q 203 180 249 88 l 119 305 q 97 392 97 342 q 159 490 113 490 l 162 490 q 246 403 198 486 q 262 449 251 403 q 319 495 294 490 q 368 376 368 481 q 290 129 368 307 q 260 88 279 88 z "},"Ą":{"ha":501,"x_min":88,"x_max":451,"o":"m 106 450 q 139 863 108 645 q 178 926 152 926 l 181 926 q 247 830 220 908 q 358 234 322 597 q 382 27 382 116 q 378 22 380 24 q 379 20 379 22 l 379 7 q 325 -126 379 -5 l 325 -130 q 369 -177 339 -177 l 389 -177 q 427 -146 406 -177 l 437 -146 q 451 -160 442 -146 q 393 -211 451 -199 l 369 -211 q 291 -130 311 -211 l 291 -126 q 342 0 291 -111 q 359 27 351 27 l 360 27 q 331 234 350 66 q 304 414 325 255 l 283 416 q 136 387 136 403 l 136 281 l 118 30 q 124 12 124 20 q 112 0 124 7 q 88 30 88 0 q 109 374 109 316 q 106 450 106 412 m 301 450 q 211 842 301 532 q 178 890 191 884 q 139 497 139 738 q 136 431 136 497 l 136 422 q 301 446 222 446 l 301 450 z "},"ą":{"ha":501,"x_min":88,"x_max":454,"o":"m 112 0 q 88 30 88 0 q 109 374 109 316 q 106 450 106 412 q 139 863 108 645 q 178 926 152 926 l 181 926 q 247 830 220 908 q 358 234 322 597 q 382 27 382 116 q 363 18 378 18 q 331 234 353 39 q 304 414 325 255 l 283 416 q 136 387 136 403 l 136 281 l 118 30 q 124 12 124 20 q 112 0 124 7 m 211 842 q 178 890 191 884 q 139 497 139 738 q 136 431 136 497 l 136 422 q 301 446 222 446 l 301 450 q 211 842 301 532 m 294 -136 q 345 -9 294 -120 q 361 18 354 18 l 375 18 q 382 11 382 16 l 382 -3 q 328 -136 382 -15 l 328 -139 q 372 -186 342 -186 l 392 -186 q 430 -156 408 -186 l 440 -156 q 454 -170 445 -156 q 395 -220 454 -208 l 372 -220 q 294 -139 313 -220 l 294 -136 z "},"Ć":{"ha":431,"x_min":88,"x_max":378,"o":"m 178 901 q 229 920 218 920 l 248 920 q 297 884 297 911 q 286 873 297 880 l 275 873 q 237 895 258 895 q 170 852 170 871 q 115 570 115 749 l 115 524 q 148 233 115 403 q 202 65 168 109 q 275 27 244 28 q 362 87 315 27 l 370 87 q 378 79 374 87 l 378 73 q 319 11 378 49 q 273 0 294 0 l 270 0 q 186 43 230 5 q 102 353 138 81 q 88 545 88 411 l 88 562 q 178 901 93 836 m 195 1006 q 178 1020 178 1008 l 178 1021 q 277 1084 178 1036 q 321 1102 313 1102 l 325 1102 q 343 1084 343 1102 q 277 1046 343 1075 q 205 1008 219 1017 q 198 1006 202 1006 l 195 1006 z "},"ć":{"ha":431,"x_min":88,"x_max":378,"o":"m 170 852 q 115 570 115 749 l 115 524 q 148 233 115 403 q 202 65 168 109 q 275 27 244 28 q 362 87 315 27 l 370 87 q 378 79 374 87 l 378 73 q 319 11 378 49 q 273 0 294 0 l 270 0 q 186 43 230 5 q 102 353 138 81 q 88 545 88 411 l 88 562 q 178 901 93 836 q 229 920 218 920 l 248 920 q 297 884 297 911 q 286 873 297 880 l 275 873 q 237 895 258 895 q 170 852 170 871 m 132 999 q 231 1061 132 1014 q 275 1080 266 1080 l 278 1080 q 296 1061 296 1080 q 231 1024 296 1053 q 158 985 172 994 q 151 984 155 984 l 148 984 q 132 998 132 986 l 132 999 z "},"Ę":{"ha":390,"x_min":102,"x_max":311,"o":"m 151 488 l 151 477 q 170 35 151 286 q 173 32 173 35 q 295 37 275 37 q 311 24 307 34 l 311 21 q 300 10 311 17 q 176 5 197 7 q 143 40 143 5 q 124 471 124 299 l 124 558 q 111 881 111 797 q 102 924 102 922 l 113 932 l 143 932 q 186 935 159 932 l 192 932 q 195 935 195 932 q 281 916 281 927 l 281 913 q 268 900 277 900 l 189 908 q 135 905 182 908 l 138 873 q 151 515 138 829 l 170 515 q 205 517 193 515 q 295 512 267 512 l 303 501 l 303 493 q 292 485 303 485 q 214 490 269 485 q 151 488 177 488 m 182 -210 l 203 -210 q 241 -179 219 -210 l 251 -179 q 264 -193 256 -179 q 206 -243 264 -231 l 182 -243 q 104 -162 124 -243 l 104 -159 q 155 -33 104 -143 q 172 -5 165 -5 l 186 -5 q 193 -12 193 -7 l 193 -26 q 138 -159 193 -38 l 138 -162 q 182 -210 153 -210 z "},"ę":{"ha":390,"x_min":102,"x_max":319,"o":"m 145 873 q 159 515 145 829 l 178 515 q 213 517 200 515 q 302 512 274 512 l 311 501 l 311 493 q 300 485 311 485 q 221 490 276 485 q 159 488 184 488 l 159 477 q 178 35 159 286 q 180 32 180 35 q 302 37 283 37 q 319 24 314 34 l 319 21 q 308 10 319 17 q 183 5 205 7 q 151 40 151 5 q 132 471 132 299 l 132 558 q 118 881 118 797 q 110 924 110 922 l 121 932 l 151 932 q 194 935 166 932 l 199 932 q 202 935 202 932 q 289 916 289 927 l 289 913 q 275 900 284 900 l 197 908 q 142 905 189 908 l 145 873 m 170 2 l 184 2 q 191 -5 191 1 l 191 -18 q 136 -151 191 -31 l 136 -155 q 180 -202 151 -202 l 201 -202 q 239 -172 217 -202 l 249 -172 q 262 -185 254 -172 q 204 -236 262 -224 l 180 -236 q 102 -155 122 -236 l 102 -151 q 153 -25 102 -136 q 170 2 163 2 z "},"Ł":{"ha":390,"x_min":-72,"x_max":358,"o":"m 123 944 q 142 445 142 648 q 150 263 150 379 l 150 27 l 296 27 q 304 19 300 27 l 304 11 q 258 0 304 0 l 134 0 q 123 11 130 0 l 123 27 q 125 46 123 46 l 123 79 l 123 277 q 101 871 112 634 l 93 960 q 112 974 97 974 l 115 974 q 125 963 119 974 q 120 949 125 949 l 123 944 m 138 646 q 363 636 309 636 l 369 636 q 374 631 372 636 l 374 626 l 369 620 q 138 629 285 621 q -18 626 -9 628 q -43 634 -43 628 l -43 637 q -36 644 -43 640 q -20 642 -26 644 q 138 646 92 646 z "},"ł":{"ha":390,"x_min":-70,"x_max":347,"o":"m 123 944 q 142 445 142 648 q 150 263 150 379 l 150 27 l 296 27 q 304 19 300 27 l 304 11 q 258 0 304 0 l 134 0 q 123 11 130 0 l 123 27 q 125 46 123 46 l 123 79 l 123 277 q 101 871 112 634 l 93 960 q 112 974 97 974 l 115 974 q 125 963 119 974 q 120 949 125 949 l 123 944 m 111 632 q 336 622 282 622 l 342 622 q 347 617 344 622 l 347 613 l 342 606 q 111 616 257 608 q -45 613 -36 614 q -70 621 -70 614 l -70 624 q -63 630 -70 626 q -47 629 -53 630 q 111 632 65 632 z "},"Ń":{"ha":473,"x_min":111,"x_max":419,"o":"m 376 604 q 376 635 376 612 q 381 721 381 689 l 381 913 q 396 929 383 929 l 412 921 q 404 690 404 767 l 404 613 q 419 4 404 377 l 404 -3 q 212 597 389 -3 l 140 842 l 135 851 l 134 836 q 139 747 139 779 l 140 724 q 134 513 134 573 q 157 12 134 209 l 142 12 q 127 27 127 12 q 111 451 111 264 l 111 921 q 127 937 114 937 q 250 567 142 937 q 381 127 265 479 l 389 127 l 389 151 q 373 521 373 480 q 376 604 373 533 m 272 1028 q 199 989 214 998 q 193 988 197 988 l 189 988 q 173 1002 173 990 l 173 1003 q 272 1065 173 1018 q 316 1084 307 1084 l 319 1084 q 338 1065 338 1084 q 272 1028 338 1057 z "},"ń":{"ha":473,"x_min":111,"x_max":419,"o":"m 376 604 q 376 635 376 612 q 381 721 381 689 l 381 913 q 396 929 383 929 l 412 921 q 404 690 404 767 l 404 613 q 419 4 404 377 l 404 -3 q 212 597 389 -3 l 140 842 l 135 851 l 134 836 q 139 747 139 779 l 140 724 q 134 513 134 573 q 157 12 134 209 l 142 12 q 127 27 127 12 q 111 451 111 264 l 111 921 q 127 937 114 937 q 250 567 142 937 q 381 127 265 479 l 389 127 l 389 151 q 373 521 373 480 q 376 604 373 533 m 262 1015 q 190 976 204 985 q 183 975 187 975 l 180 975 q 163 988 163 977 l 163 989 q 262 1052 163 1004 q 307 1070 298 1070 l 310 1070 q 328 1052 328 1070 q 262 1015 328 1043 z "},"Ś":{"ha":390,"x_min":56,"x_max":335,"o":"m 88 863 q 235 916 125 916 l 243 906 l 243 901 q 229 888 243 898 l 202 888 q 104 835 130 888 q 83 703 83 776 q 121 558 83 659 q 267 411 134 531 q 335 218 335 313 q 302 71 335 143 q 221 13 288 37 q 183 0 197 0 q 164 10 169 0 l 164 18 q 194 28 164 25 q 283 99 283 62 q 308 226 308 148 q 216 427 308 328 q 107 533 143 481 q 58 673 83 559 q 56 708 58 686 q 88 863 56 795 m 239 1084 q 283 1102 275 1102 l 287 1102 q 305 1084 305 1102 q 239 1046 305 1075 q 167 1008 181 1017 q 160 1006 164 1006 l 157 1006 q 140 1020 140 1008 l 140 1021 q 239 1084 140 1036 z "},"ś":{"ha":390,"x_min":56,"x_max":335,"o":"m 88 863 q 235 916 125 916 l 243 906 l 243 901 q 229 888 243 898 l 202 888 q 104 835 130 888 q 83 703 83 776 q 121 558 83 659 q 267 411 134 531 q 335 218 335 313 q 302 71 335 143 q 221 13 288 37 q 183 0 197 0 q 164 10 169 0 l 164 18 q 194 28 164 25 q 283 99 283 62 q 308 226 308 148 q 216 427 308 328 q 107 533 143 481 q 58 673 83 559 q 56 708 58 686 q 88 863 56 795 m 139 1003 q 132 1002 136 1002 l 129 1002 q 113 1015 113 1004 l 113 1017 q 212 1079 113 1031 q 256 1097 247 1097 l 259 1097 q 277 1079 277 1097 q 212 1042 277 1070 q 139 1003 153 1012 z "},"Ż":{"ha":492,"x_min":106,"x_max":375,"o":"m 117 819 l 123 819 q 296 803 123 809 q 345 779 345 798 l 345 776 q 201 282 286 612 q 142 35 142 121 q 215 30 164 30 q 334 33 241 30 q 353 27 353 31 l 359 30 l 364 30 q 375 19 368 30 l 375 11 q 359 0 375 5 q 315 5 336 5 q 191 3 277 5 q 115 8 145 8 q 109 22 109 17 q 172 285 109 89 q 261 613 188 331 q 313 770 294 704 q 117 787 279 778 q 106 808 106 798 q 117 819 106 812 m 212 1028 q 228 1044 212 1036 l 259 1044 q 279 1008 279 1036 l 279 997 q 259 977 279 989 l 233 977 q 212 997 225 977 l 212 1028 z "},"ż":{"ha":492,"x_min":106,"x_max":375,"o":"m 117 819 l 123 819 q 296 803 123 809 q 345 779 345 798 l 345 776 q 201 282 286 612 q 142 35 142 121 q 215 30 164 30 q 334 33 241 30 q 353 27 353 31 l 359 30 l 364 30 q 375 19 368 30 l 375 11 q 359 0 375 5 q 315 5 336 5 q 191 3 277 5 q 115 8 145 8 q 109 22 109 17 q 172 285 109 89 q 261 613 188 331 q 313 770 294 704 q 117 787 279 778 q 106 808 106 798 q 117 819 106 812 m 197 1026 q 213 1042 197 1034 l 244 1042 q 264 1006 264 1034 l 264 995 q 244 975 264 987 l 218 975 q 197 995 210 975 l 197 1026 z "},"Ź":{"ha":492,"x_min":106,"x_max":375,"o":"m 191 3 q 315 5 277 5 q 359 0 336 5 q 375 11 375 5 l 375 19 q 364 30 368 30 l 359 30 l 353 27 q 334 33 353 31 q 215 30 241 30 q 142 35 164 30 q 201 282 142 121 q 345 776 286 612 l 345 779 q 296 803 345 798 q 123 819 123 809 l 117 819 q 106 808 106 812 q 117 787 106 798 q 313 770 279 778 q 261 613 294 704 q 172 285 188 331 q 109 22 109 89 q 115 8 109 17 q 191 3 145 8 m 186 1021 l 186 1020 q 202 1006 186 1008 l 205 1006 q 212 1008 210 1006 q 285 1046 227 1017 q 351 1084 351 1075 q 332 1102 351 1102 l 329 1102 q 285 1084 320 1102 q 186 1021 186 1036 z "},"ź":{"ha":492,"x_min":106,"x_max":375,"o":"m 191 3 q 115 8 145 8 q 109 22 109 17 q 172 285 109 89 q 261 613 188 331 q 313 770 294 704 q 117 787 279 778 q 106 808 106 798 q 117 819 106 812 l 123 819 q 296 803 123 809 q 345 779 345 798 l 345 776 q 201 282 286 612 q 142 35 142 121 q 215 30 164 30 q 334 33 241 30 q 353 27 353 31 l 359 30 l 364 30 q 375 19 368 30 l 375 11 q 359 0 375 5 q 315 5 336 5 q 191 3 277 5 m 196 960 l 193 960 q 176 974 176 962 l 176 975 q 275 1038 176 990 q 319 1056 311 1056 l 323 1056 q 341 1038 341 1056 q 275 1000 341 1029 q 203 962 217 970 q 196 960 200 960 z "}}}
